<svg xmlns="http://www.w3.org/2000/svg" viewBox="0 0 76.47 76.47"><defs><style>.cls-1,.cls-2{fill:none;stroke:#fff;stroke-miterlimit:10;}.cls-2{stroke-width:2px;}</style></defs><title>beam</title><g id="圖層_2" data-name="圖層 2"><g id="圖層_1-2" data-name="圖層 1"><path class="cls-1" d="M36.54,23.88c-7.91.29-15.35,13.5-9.23,20.09s6.33-6.37,8.47-9.21S43.33,23.63,36.54,23.88Z"/><path class="cls-1" d="M42.89,31.63c.75,1.36-.37,9.65-5,12.51s-1.75-6.4,0-8S41.25,28.66,42.89,31.63Z"/><path class="cls-1" d="M42.34,54.11c2.84,1.89,8.76-.86,8.28-4.7S46.8,50,45.34,50.5,39.9,52.49,42.34,54.11Z"/><path class="cls-1" d="M42.07,49.81c.08-.66,2.56-3.28,4.88-3.13s-1,2.68-2,2.8S41.89,51.26,42.07,49.81Z"/><circle class="cls-2" cx="38.23" cy="38.23" r="37.23"/></g></g></svg>