<?xml version="1.0" encoding="utf-8"?>
<!-- Generator: Adobe Illustrator 21.1.0, SVG Export Plug-In . SVG Version: 6.00 Build 0)  -->
<svg version="1.1" id="圖層_1" xmlns="http://www.w3.org/2000/svg" xmlns:xlink="http://www.w3.org/1999/xlink" x="0px" y="0px"
	 viewBox="0 0 28.9 28.9" style="enable-background:new 0 0 28.9 28.9;" xml:space="preserve">
<style type="text/css">
	.st0{fill:#FFD732;}
</style>
<title>birth</title>
<g id="圖層_2">
	<g id="圖層_1-2">
		<path class="st0" d="M14.5,28.9C6.5,28.9,0,22.5,0,14.5S6.5,0,14.5,0s14.5,6.5,14.5,14.5c0,0,0,0,0,0
			C28.9,22.5,22.5,28.9,14.5,28.9z M14.5,0.9C7,0.9,0.9,7,0.9,14.5S7,28,14.5,28C21.9,28,28,21.9,28,14.5C28,7,21.9,0.9,14.5,0.9z"
			/>
		<g id="Hwg4Pz">
			<path class="st0" d="M7.9,17.3c0-0.6,0-1.1,0-1.6C8,15,8.5,14.5,9.2,14.5h0.6v-3.3h1.9v3.3h1.9v-3.3h1.9v3.3h1.9v-3.3h1.9v3.3
				h0.5c0.5,0,0.9,0.2,1.2,0.6c0.1,0.2,0.2,0.4,0.2,0.6c0,0.5,0,1.1,0,1.6c-0.2,0-0.4-0.1-0.6-0.2l-0.3-0.3c-0.7-0.6-1.8-0.6-2.5,0
				l-0.3,0.2c-0.4,0.3-0.9,0.3-1.2,0c-0.1-0.1-0.3-0.2-0.4-0.4c-0.6-0.6-1.6-0.7-2.2-0.1c0,0-0.1,0.1-0.1,0.1
				c-0.1,0.1-0.3,0.2-0.4,0.3c-0.4,0.3-1,0.3-1.3,0l-0.3-0.2c-0.6-0.5-1.5-0.6-2.3-0.2c-0.2,0.1-0.4,0.3-0.5,0.4
				c-0.1,0.2-0.3,0.3-0.6,0.3L7.9,17.3z"/>
			<path class="st0" d="M7.9,21.1v-2.8c0.2-0.1,0.5-0.1,0.7-0.2C8.8,18,9,17.9,9.2,17.7l0.3-0.2c0.4-0.3,0.8-0.3,1.2,0l0.4,0.3
				c0.7,0.5,1.7,0.5,2.3,0l0.4-0.4c0.4-0.3,0.8-0.3,1.2,0l0.3,0.3c0.7,0.6,1.8,0.6,2.5,0c0.1-0.1,0.3-0.2,0.4-0.3
				c0.3-0.2,0.8-0.2,1.1,0l0.4,0.3c0.3,0.3,0.7,0.4,1.1,0.4h0.1V21L7.9,21.1z"/>
			<path class="st0" d="M10.7,7.9c0.1,0,0.2,0.1,0.2,0.1c0.6,0.5,0.8,1.4,0.6,2.1c-0.1,0.5-0.6,0.7-1.1,0.6c-0.4-0.1-0.7-0.5-0.7-1
				c0-0.2,0.1-0.4,0.3-0.5c0.1-0.1,0.3-0.2,0.4-0.4c0.2-0.2,0.3-0.5,0.2-0.8C10.7,8,10.7,7.9,10.7,7.9L10.7,7.9z"/>
			<path class="st0" d="M14.5,7.9c0.1,0,0.2,0.1,0.2,0.1c0.6,0.5,0.8,1.4,0.6,2.1c-0.1,0.4-0.5,0.6-0.9,0.6c-0.4,0-0.8-0.3-0.9-0.7
				c-0.1-0.3,0-0.7,0.3-0.9C14,9,14.1,8.9,14.2,8.7c0.2-0.2,0.3-0.5,0.3-0.7C14.5,8,14.5,7.9,14.5,7.9z"/>
			<path class="st0" d="M18.2,7.9c0.1,0,0.2,0.1,0.2,0.1c0.6,0.5,0.8,1.4,0.6,2.1c-0.1,0.4-0.5,0.6-0.9,0.6c-0.4,0-0.8-0.3-0.9-0.7
				c-0.1-0.3,0-0.7,0.3-0.9C17.8,9,17.9,8.8,18,8.7c0.2-0.2,0.2-0.4,0.2-0.7C18.2,8,18.2,7.9,18.2,7.9z"/>
		</g>
	</g>
</g>
</svg>
