<svg xmlns="http://www.w3.org/2000/svg" viewBox="0 0 28.93 28.93"><defs><style>.cls-1{fill:#855e00;}</style></defs><title>birth</title><g id="圖層_2" data-name="圖層 2"><g id="圖層_1-2" data-name="圖層 1"><path class="cls-1" d="M14.47,28.93A14.47,14.47,0,1,1,28.93,14.47,14.48,14.48,0,0,1,14.47,28.93Zm0-28A13.53,13.53,0,1,0,28,14.47,13.55,13.55,0,0,0,14.47.93Z"/><g id="Hwg4Pz"><path class="cls-1" d="M7.89,17.31c0-.56,0-1.1,0-1.64a1.36,1.36,0,0,1,1.3-1.18h.56v-3.3h1.89v3.29h1.89V11.19h1.89v3.28h1.89V11.19h1.89v3.29h.46a1.39,1.39,0,0,1,1.19.63,1.06,1.06,0,0,1,.22.59c0,.53,0,1.07,0,1.61a.94.94,0,0,1-.57-.19l-.34-.29a2,2,0,0,0-2.55,0l-.29.24a1,1,0,0,1-1.22,0c-.14-.11-.28-.23-.42-.35a1.57,1.57,0,0,0-2.33,0,4.47,4.47,0,0,0-.38.31,1,1,0,0,1-1.33,0l-.28-.24a2,2,0,0,0-2.27-.2,4.11,4.11,0,0,0-.53.41A1,1,0,0,1,8,17.3Z"/><path class="cls-1" d="M7.87,21.08V18.3c.25-.06.5-.12.74-.19a1.71,1.71,0,0,0,.59-.37l.27-.22a1,1,0,0,1,1.18,0l.41.34a1.94,1.94,0,0,0,2.35,0l.45-.36a1,1,0,0,1,1.2,0l.33.27a1.94,1.94,0,0,0,2.54,0,4.86,4.86,0,0,1,.43-.33.94.94,0,0,1,1.08,0l.41.33a1.89,1.89,0,0,0,1.12.42h.09v2.81Z"/><path class="cls-1" d="M10.72,7.87a1.1,1.1,0,0,1,.23.12,2.09,2.09,0,0,1,.59,2.12.88.88,0,0,1-1.09.57,1,1,0,0,1-.69-1,.84.84,0,0,1,.29-.54,4.42,4.42,0,0,0,.39-.38A1.15,1.15,0,0,0,10.69,8s0-.06,0-.09Z"/><path class="cls-1" d="M14.47,7.86a1.3,1.3,0,0,1,.25.14,2.09,2.09,0,0,1,.59,2.14.88.88,0,0,1-.87.58,1,1,0,0,1-.89-.73.86.86,0,0,1,.29-.9,4.11,4.11,0,0,0,.36-.35A1.14,1.14,0,0,0,14.46,8S14.47,7.93,14.47,7.86Z"/><path class="cls-1" d="M18.24,7.86a1.26,1.26,0,0,1,.25.13,2.09,2.09,0,0,1,.59,2.14.89.89,0,0,1-.87.58,1,1,0,0,1-.88-.72.86.86,0,0,1,.29-.91A3.87,3.87,0,0,0,18,8.71a1.13,1.13,0,0,0,.25-.7S18.24,7.93,18.24,7.86Z"/></g></g></g></svg>