<svg xmlns="http://www.w3.org/2000/svg" viewBox="0 0 28.93 28.93"><defs><style>.cls-1{fill:#82beff;}</style></defs><title>book</title><g id="圖層_2" data-name="圖層 2"><g id="圖層_1-2" data-name="圖層 1"><path class="cls-1" d="M14.47,28.93A14.47,14.47,0,1,1,28.93,14.47,14.48,14.48,0,0,1,14.47,28.93Zm0-28A13.53,13.53,0,1,0,28,14.47,13.55,13.55,0,0,0,14.47.93Z"/><path class="cls-1" d="M22.68,13.57a.5.5,0,0,0-.71,0l-1.48,1.31L16.3,18.55a1.43,1.43,0,0,1-.95.36,1.46,1.46,0,0,1-.3,0l-2.39-.53L9.77,17.7l-2-.45-.29-.06a.88.88,0,0,1-.51-.44.89.89,0,0,1-.1-.41,1,1,0,0,1,0-.27A1,1,0,0,1,7,15.82a.86.86,0,0,1,.32-.27.86.86,0,0,1,.4-.1H7.8l2.09.45,4.85,1a1.92,1.92,0,0,0,1.69-.44l3-2.63,3-2.68A1,1,0,0,0,22,9.54l-.38-.08-2.76-.6-3.5-.76a1.92,1.92,0,0,0-1.69.44L9,12.65,7.6,13.88,6.37,15a1.32,1.32,0,0,0-.13.18l-.06.08a1.92,1.92,0,0,0-.28.55,1.91,1.91,0,0,0,.28,1.7,1.86,1.86,0,0,0,.42.43,1.84,1.84,0,0,0,.55.28h0l2.13.47,2,.44,3.51.77a2.34,2.34,0,0,0,.52.06A2.44,2.44,0,0,0,17,19.3l.12-.11,4.17-3.69,1.39-1.23A.51.51,0,0,0,22.68,13.57Z"/></g></g></svg>