<svg xmlns="http://www.w3.org/2000/svg" viewBox="0 0 18.21 15.5"><defs><style>.cls-1{fill:#fff;}</style></defs><title>cart</title><g id="圖層_2" data-name="圖層 2"><g id="圖層_1-2" data-name="圖層 1"><path class="cls-1" d="M15.46,11.77H5.64a.57.57,0,0,1-.55-.43L3.18,3.85a.57.57,0,0,1,.55-.71h13.9a.57.57,0,0,1,.55.73L16,11.36A.57.57,0,0,1,15.46,11.77ZM6.09,10.63H15l1.85-6.35H4.47Z"/><path class="cls-1" d="M5.64,11.77a.57.57,0,0,1-.55-.43L2.48,1.14H.57A.57.57,0,1,1,.57,0H2.92a.57.57,0,0,1,.55.43L6.2,11.06a.57.57,0,0,1-.41.7Z"/><path class="cls-1" d="M6.45,15.5a1.26,1.26,0,1,1,1.26-1.26A1.26,1.26,0,0,1,6.45,15.5Zm0-2.15a.89.89,0,1,0,.89.89A.89.89,0,0,0,6.45,13.35Z"/><path class="cls-1" d="M14.53,15.5a1.26,1.26,0,1,1,1.26-1.26A1.26,1.26,0,0,1,14.53,15.5Zm0-2.15a.89.89,0,1,0,.89.89A.89.89,0,0,0,14.53,13.35Z"/></g></g></svg>