<svg xmlns="http://www.w3.org/2000/svg" viewBox="0 0 28.69 19.13"><defs><style>.cls-1{fill:#fff;}</style></defs><title>cash</title><g id="圖層_2" data-name="圖層 2"><g id="圖層_1-2" data-name="圖層 1"><path class="cls-1" d="M14.37,0H27.59a1,1,0,0,1,1.1,1.11q0,8.46,0,16.92a1,1,0,0,1-1.1,1.09H1.11A1,1,0,0,1,0,18Q0,9.57,0,1.12A1.07,1.07,0,0,1,1.13,0C5.54,0,10,0,14.37,0Zm12.4,5.77a3.91,3.91,0,0,1-3.85-3.84H5.74A3.74,3.74,0,0,1,4.61,4.63,3.74,3.74,0,0,1,1.93,5.74v7.65a3.73,3.73,0,0,1,2.69,1.13A3.76,3.76,0,0,1,5.75,17.2H23a3.84,3.84,0,0,1,3.81-3.81Z"/><path class="cls-1" d="M19.13,9.73a7.43,7.43,0,0,1-1.78,4.69,4,4,0,0,1-6,0,7.1,7.1,0,0,1-1.71-4A7.31,7.31,0,0,1,11,5.14a4,4,0,0,1,5.35-1.23,4.81,4.81,0,0,1,1.83,2A8.31,8.31,0,0,1,19.13,9.73Zm-5.76-2V12H11.49v1.41H17.2V12H15.29V5.26H13.71a.28.28,0,0,0-.17.06l-2.17,2,1.26,1.14Z"/></g></g></svg>