<?xml version="1.0" encoding="utf-8"?>
<!-- Generator: Adobe Illustrator 21.1.0, SVG Export Plug-In . SVG Version: 6.00 Build 0)  -->
<svg version="1.1" id="圖層_1" xmlns="http://www.w3.org/2000/svg" xmlns:xlink="http://www.w3.org/1999/xlink" x="0px" y="0px"
	 viewBox="0 0 30 30" style="enable-background:new 0 0 30 30;" xml:space="preserve">
<style type="text/css">
	.st0{fill:#FFD732;}
</style>
<title>check</title>
<g id="圖層_2">
	<g id="圖層_1-2">
		<path class="st0" d="M15,30C6.7,30,0,23.3,0,15S6.7,0,15,0s15,6.7,15,15S23.3,30,15,30z M15,1C7.3,1,1,7.3,1,15s6.3,14,14,14
			s14-6.3,14-14S22.7,1,15,1z"/>
		<path class="st0" d="M13.6,20.7c-0.4,0-0.7-0.2-0.9-0.5l-2.9-3.8c-0.4-0.5-0.3-1.2,0.2-1.6c0.5-0.4,1.2-0.3,1.6,0.2l1.9,2.5
			l4.8-7.7c0.3-0.5,1-0.7,1.6-0.4c0.5,0.3,0.7,1,0.4,1.6l-5.7,9.1C14.4,20.4,14,20.6,13.6,20.7L13.6,20.7z"/>
	</g>
</g>
</svg>
