<svg xmlns="http://www.w3.org/2000/svg" viewBox="0 0 25.75 37.11"><defs><style>.cls-1,.cls-2{fill:#fff;}.cls-1{fill-rule:evenodd;}.cls-3,.cls-4{fill:none;stroke:#fff;stroke-miterlimit:10;}.cls-3{stroke-width:0.81px;}.cls-4{stroke-width:1.22px;}</style></defs><title>click</title><g id="圖層_2" data-name="圖層 2"><g id="圖層_1-2" data-name="圖層 1"><path class="cls-1" d="M23.3,32.7a16.25,16.25,0,0,0,2.46-8.46,14.66,14.66,0,0,0-.46-3.78,2,2,0,0,0-1.83-1.51,1.83,1.83,0,0,0-1.38.62V19.4a1.83,1.83,0,0,0-3.67,0v-.92a1.83,1.83,0,1,0-3.67,0v-6a1.83,1.83,0,1,0-3.67,0V23a.92.92,0,0,1-.92.92.93.93,0,0,1-.25,0L7.32,22.81a1.83,1.83,0,1,0-1.53,3.33,15.32,15.32,0,0,1,7,6.56Z"/><rect class="cls-2" x="12.78" y="33.86" width="10.52" height="3.24"/><circle class="cls-3" cx="12.78" cy="12.78" r="4.87"/><circle class="cls-4" cx="12.78" cy="12.78" r="12.17"/></g></g></svg>