<svg xmlns="http://www.w3.org/2000/svg" viewBox="0 0 29 29"><defs><style>.cls-1{fill:#606060;}</style></defs><title>coin</title><g id="圖層_2" data-name="圖層 2"><g id="圖層_1-2" data-name="圖層 1"><path class="cls-1" d="M14.5,29A14.5,14.5,0,1,1,29,14.5,14.52,14.52,0,0,1,14.5,29ZM14.5.94A13.56,13.56,0,1,0,28.06,14.5,13.58,13.58,0,0,0,14.5.94Z"/><path class="cls-1" d="M15.74,8.4a2.34,2.34,0,0,0-2.47,2.45c0,1.06.52,1.7,2.15,2.75s2.45,1.94,2.45,3.43c0,2.15-1.72,3.77-4.21,3.73a6.9,6.9,0,0,1-3.31-.94c.06-.46.26-2.11.32-2.61h.26c.12,2.07,1.06,3.15,2.95,3.15a2.62,2.62,0,0,0,2.65-2.79c0-1.14-.36-1.8-1.82-2.83C13,13.54,12,12.66,12.07,11.17,12.13,9.43,13.42,8,15.88,8a8,8,0,0,1,2.77.62c-.1.58-.26,1.76-.34,2.47l-.26,0C17.95,9.73,17.71,8.44,15.74,8.4Zm.44-2h.46L13.32,22.58h-.5Z"/></g></g></svg>