<svg xmlns="http://www.w3.org/2000/svg" viewBox="0 0 77 77"><defs><style>.cls-1,.cls-2{fill:none;stroke:#fff;stroke-miterlimit:10;}.cls-2{stroke-width:2px;}</style></defs><title>cup</title><g id="圖層_2" data-name="圖層 2"><g id="圖層_1-2" data-name="圖層 1"><path class="cls-1" d="M28.76,48.93A2.26,2.26,0,0,0,31,51.18H51.07a2.26,2.26,0,0,0,2.26-2.26v-1.8H28.76Z"/><path class="cls-1" d="M51.39,25.82H27.46a7,7,0,0,0-7,7,7.19,7.19,0,0,0,7,7,5.75,5.75,0,0,0,2-.21,11.29,11.29,0,0,0,3.5,5.21H49.4a11.25,11.25,0,0,0,4.05-8.66V27.89A2.07,2.07,0,0,0,51.39,25.82Zm-22.5,9.64a3,3,0,0,1-1.43.38,3,3,0,1,1,1.43-5.58Z"/><circle class="cls-2" cx="38.5" cy="38.5" r="37.5"/></g></g></svg>