<?xml version="1.0" encoding="utf-8"?>
<!-- Generator: Adobe Illustrator 21.1.0, SVG Export Plug-In . SVG Version: 6.00 Build 0)  -->
<svg version="1.1" id="圖層_1" xmlns="http://www.w3.org/2000/svg" xmlns:xlink="http://www.w3.org/1999/xlink" x="0px" y="0px"
	 viewBox="0 0 30 30" style="enable-background:new 0 0 30 30;" xml:space="preserve">
<style type="text/css">
	.st0{fill:#FFD732;}
</style>
<title>email</title>
<g id="圖層_2">
	<g id="圖層_1-2">
		<path class="st0" d="M15,30C6.7,30,0,23.3,0,15S6.7,0,15,0s15,6.7,15,15S23.3,30,15,30z M15,1C7.3,1,1,7.3,1,15s6.3,14,14,14
			s14-6.3,14-14S22.7,1,15,1z"/>
		<path class="st0" d="M8.3,11.2l6,3.2c0.5,0.2,1,0.2,1.4,0l6-3.2c0.4-0.2,0.8-0.9,0-0.9H8.2C7.5,10.4,7.9,11,8.3,11.2z M21.9,12.8
			L15.7,16c-0.2,0.1-0.5,0.2-0.7,0.2c-0.3,0-0.5,0-0.7-0.2l-6.2-3.2c-0.3-0.2-0.3,0-0.3,0.2v5.9c0.1,0.4,0.4,0.7,0.8,0.8h12.8
			c0.4-0.1,0.7-0.4,0.8-0.8V13C22.2,12.9,22.2,12.7,21.9,12.8z"/>
	</g>
</g>
</svg>
