<svg xmlns="http://www.w3.org/2000/svg" viewBox="0 0 30 30"><defs><style>.cls-1{fill:#855e00;}</style></defs><title>email</title><g id="圖層_2" data-name="圖層 2"><g id="圖層_1-2" data-name="圖層 1"><path class="cls-1" d="M15,30A15,15,0,1,1,30,15,15,15,0,0,1,15,30ZM15,1A14,14,0,1,0,29,15,14,14,0,0,0,15,1Z"/><path class="cls-1" d="M8.28,11.23l6,3.22a1.72,1.72,0,0,0,1.45,0l6-3.22c.39-.21.76-.87,0-.87H8.23C7.52,10.36,7.89,11,8.28,11.23Zm13.61,1.6-6.16,3.22a1.37,1.37,0,0,1-.72.16,1.37,1.37,0,0,1-.72-.16L8.11,12.83c-.31-.16-.31,0-.31.18v5.87a.93.93,0,0,0,.79.77H21.4a.93.93,0,0,0,.79-.77V13C22.2,12.86,22.2,12.67,21.89,12.83Z"/></g></g></svg>