<?xml version="1.0" encoding="utf-8"?>
<!-- Generator: Adobe Illustrator 21.1.0, SVG Export Plug-In . SVG Version: 6.00 Build 0)  -->
<svg version="1.1" id="圖層_1" xmlns="http://www.w3.org/2000/svg" xmlns:xlink="http://www.w3.org/1999/xlink" x="0px" y="0px"
	 viewBox="0 0 28.9 28.9" style="enable-background:new 0 0 28.9 28.9;" xml:space="preserve">
<style type="text/css">
	.st0{fill:#20C9CA;}
</style>
<title>faq</title>
<g id="圖層_2">
	<g id="圖層_1-2">
		<path class="st0" d="M14.5,28.9C6.5,28.9,0,22.5,0,14.5S6.5,0,14.5,0s14.5,6.5,14.5,14.5c0,0,0,0,0,0
			C28.9,22.5,22.5,28.9,14.5,28.9z M14.5,0.9C7,0.9,0.9,7,0.9,14.5S7,28,14.5,28C21.9,28,28,21.9,28,14.5C28,7,21.9,0.9,14.5,0.9z"
			/>
		<path class="st0" d="M16.4,14.3c-0.6,0.5-1.6,1.1-1.6,1.8v1.1c0,0.5-0.3,0.6-0.8,0.6s-0.8-0.3-0.8-0.6c0-0.3,0-0.7,0-1
			c0-0.5,0.2-1,0.4-1.3c0.5-0.8,1.7-1.3,2.1-2c0.3-0.6,0.2-1.2-0.1-1.7c-0.4-0.5-1-0.7-1.6-0.7c-0.8,0.1-1.4,0.6-1.9,1.2
			c-0.3,0.3-0.7,0.5-1.1,0.4c-0.4-0.2-0.6-0.3-0.5-0.6c0.1-0.3,0.2-0.6,0.5-0.8c0.8-0.8,1.9-1.3,3-1.4c0.7,0,1.5,0.1,2.2,0.5
			c0.7,0.4,1.3,1.1,1.4,1.9C17.7,12.7,17.2,13.7,16.4,14.3z M13,19.3c0.1-0.5,0.5-0.8,1-0.8c0.5,0,0.9,0.4,1,0.9
			c-0.1,0.5-0.5,0.9-1.1,0.8C13.5,20.2,13.1,19.8,13,19.3L13,19.3z"/>
	</g>
</g>
</svg>
