<svg xmlns="http://www.w3.org/2000/svg" viewBox="0 0 28.93 28.93"><defs><style>.cls-1{fill:#855e00;}</style></defs><title>faq</title><g id="圖層_2" data-name="圖層 2"><g id="圖層_1-2" data-name="圖層 1"><path class="cls-1" d="M14.47,28.93A14.47,14.47,0,1,1,28.93,14.47,14.48,14.48,0,0,1,14.47,28.93Zm0-28A13.53,13.53,0,1,0,28,14.47,13.55,13.55,0,0,0,14.47.93Z"/><path class="cls-1" d="M16.43,14.32c-.58.48-1.61,1.08-1.61,1.78V17.2c0,.48-.34.63-.83.64s-.75-.27-.75-.58a8.39,8.39,0,0,1,0-1,2.26,2.26,0,0,1,.44-1.34c.54-.76,1.71-1.31,2.06-2a1.84,1.84,0,0,0-.08-1.72,1.86,1.86,0,0,0-1.55-.67,2.83,2.83,0,0,0-1.88,1.2,1.13,1.13,0,0,1-1.15.37c-.36-.16-.58-.34-.54-.57a1.56,1.56,0,0,1,.48-.84,4.48,4.48,0,0,1,3-1.42,4.25,4.25,0,0,1,2.16.48,2.74,2.74,0,0,1,1.41,1.93A3.07,3.07,0,0,1,16.43,14.32Zm-3.47,5A1,1,0,0,1,14,18.53a1,1,0,0,1,1,.85,1,1,0,0,1-1.07.84A1,1,0,0,1,13,19.37Z"/></g></g></svg>