<?xml version="1.0" encoding="utf-8"?>
<!-- Generator: Adobe Illustrator 21.1.0, SVG Export Plug-In . SVG Version: 6.00 Build 0)  -->
<svg version="1.1" id="圖層_1" xmlns="http://www.w3.org/2000/svg" xmlns:xlink="http://www.w3.org/1999/xlink" x="0px" y="0px"
	 viewBox="0 0 27 27" style="enable-background:new 0 0 27 27;" xml:space="preserve">
<title>fb</title>
<g id="圖層_2">
	<g id="圖層_1-2">
		<path d="M17.7,8.6h-2.4c-0.3,0-0.6,0.4-0.6,0.9v1.7h3v2.4h-3V21h-2.8v-7.4H9.3v-2.5h2.6V9.7c-0.1-1.9,1.4-3.6,3.3-3.7
			c0,0,0.1,0,0.1,0h2.4V8.6z"/>
		<path d="M13.5,27C6,27,0,21,0,13.5S6,0,13.5,0S27,6,27,13.5C27,21,21,27,13.5,27z M13.5,1C6.6,1,1,6.6,1,13.5S6.6,26,13.5,26
			S26,20.4,26,13.5C26,6.6,20.4,1,13.5,1z"/>
	</g>
</g>
</svg>
