<svg xmlns="http://www.w3.org/2000/svg" viewBox="0 0 33.24 33.24"><defs><style>.cls-1{fill:#fff;}</style></defs><title>fb_login</title><g id="圖層_2" data-name="圖層 2"><g id="圖層_1-2" data-name="圖層 1"><path class="cls-1" d="M21.75,10.6H18.82c-.35,0-.73.46-.73,1.07v2.12h3.66v3H18.08v9.06H14.62V16.79H11.49v-3h3.14V12a4.35,4.35,0,0,1,4.19-4.62h2.93Z"/><path class="cls-1" d="M16.62,33.24A16.62,16.62,0,1,1,33.24,16.62,16.64,16.64,0,0,1,16.62,33.24Zm0-32A15.39,15.39,0,1,0,32,16.62,15.4,15.4,0,0,0,16.62,1.23Z"/></g></g></svg>