<svg xmlns="http://www.w3.org/2000/svg" viewBox="0 0 29.93 29.96"><defs><style>.cls-1{fill:#fff;}</style></defs><title>instagram</title><g id="圖層_2" data-name="圖層 2"><g id="圖層_1-2" data-name="圖層 1"><path class="cls-1" d="M23.65,9.81a3.66,3.66,0,0,0-3.07-3.43,17.21,17.21,0,0,0-2.9-.23H12.19a19.7,19.7,0,0,0-2.74.19,3.53,3.53,0,0,0-3,2.71,6.4,6.4,0,0,0-.23,1.54c0,2-.07,3.91-.06,5.87a34.07,34.07,0,0,0,.14,3.74,3.6,3.6,0,0,0,3.05,3.44,17.37,17.37,0,0,0,2.94.23h5.42c.82,0,1.65-.05,2.48-.14a4,4,0,0,0,2.11-.82,4,4,0,0,0,1.45-3.12c.08-1.65.11-6.65.09-7.5A22.1,22.1,0,0,0,23.65,9.81Zm-8.7,10.74A5.55,5.55,0,1,1,20.51,15a5.48,5.48,0,0,1-5.44,5.53Zm5.78-10.05a1.32,1.32,0,0,1-1.3-1.32A1.3,1.3,0,0,1,20.74,7.9h0A1.27,1.27,0,0,1,22,9.16s0,0,0,.07a1.3,1.3,0,0,1-1.28,1.32h0Z"/><path class="cls-1" d="M15,11.4a3.6,3.6,0,1,0,3.58,3.66A3.66,3.66,0,0,0,15,11.4Z"/><path class="cls-1" d="M26.27,0H3.66A3.71,3.71,0,0,0,0,3.66V26.31A3.71,3.71,0,0,0,3.66,30H26.27a3.71,3.71,0,0,0,3.66-3.66V3.69A3.71,3.71,0,0,0,26.27,0Zm-.55,19.38A7.07,7.07,0,0,1,24.81,23,5.38,5.38,0,0,1,21,25.51a19.36,19.36,0,0,1-3,.25h-6.4a10.46,10.46,0,0,1-3.35-.42A5.43,5.43,0,0,1,4.45,21a17.51,17.51,0,0,1-.25-3v-6.4a10.48,10.48,0,0,1,.43-3.36A5.43,5.43,0,0,1,8.95,4.49a17.27,17.27,0,0,1,3-.25h6.4a10.45,10.45,0,0,1,3.35.42A5.43,5.43,0,0,1,25.48,9a20.34,20.34,0,0,1,.25,3c.07,1,0,5.92,0,7.39Z"/></g></g></svg>