<?xml version="1.0" encoding="utf-8"?>
<!-- Generator: Adobe Illustrator 21.1.0, SVG Export Plug-In . SVG Version: 6.00 Build 0)  -->
<svg version="1.1" id="圖層_1" xmlns="http://www.w3.org/2000/svg" xmlns:xlink="http://www.w3.org/1999/xlink" x="0px" y="0px"
	 viewBox="0 0 27 27" style="enable-background:new 0 0 27 27;" xml:space="preserve">
<title>instagram</title>
<g id="圖層_2">
	<g id="圖層_1-2">
		<path d="M16.7,20.9h-6.4c-2.3,0-4.2-1.9-4.2-4.2v-6.4C6.1,8,8,6.1,10.3,6.1h6.4c2.3,0,4.2,1.9,4.2,4.2v6.4
			C20.9,19,19,20.9,16.7,20.9z M10.3,7.4c-1.6,0-2.9,1.3-2.9,2.9v6.4c0,1.6,1.3,2.9,2.9,2.9h6.4c1.6,0,2.9-1.3,2.9-2.9v-6.4
			c0-1.6-1.3-2.9-2.9-2.9L10.3,7.4z"/>
		<path d="M13.5,17.3c-2.1,0-3.8-1.7-3.8-3.8s1.7-3.8,3.8-3.8s3.8,1.7,3.8,3.8S15.6,17.3,13.5,17.3L13.5,17.3z M13.5,11
			c-1.4,0-2.5,1.1-2.5,2.5s1.1,2.5,2.5,2.5s2.5-1.1,2.5-2.5c0,0,0,0,0,0C16,12.1,14.9,11,13.5,11L13.5,11z"/>
		<circle cx="17.5" cy="9.5" r="0.9"/>
		<path d="M13.5,27C6,27,0,21,0,13.5S6,0,13.5,0S27,6,27,13.5C27,21,21,27,13.5,27z M13.5,1C6.6,1,1,6.6,1,13.5S6.6,26,13.5,26
			S26,20.4,26,13.5C26,6.6,20.4,1,13.5,1z"/>
	</g>
</g>
</svg>
