<svg xmlns="http://www.w3.org/2000/svg" viewBox="0 0 27 27"><defs><style>.cls-1{fill:#fff;}</style></defs><title>instagram</title><g id="圖層_2" data-name="圖層 2"><g id="圖層_1-2" data-name="圖層 1"><path class="cls-1" d="M16.69,20.9H10.31A4.22,4.22,0,0,1,6.1,16.69V10.31A4.22,4.22,0,0,1,10.31,6.1h6.38a4.22,4.22,0,0,1,4.21,4.21v6.38A4.22,4.22,0,0,1,16.69,20.9ZM10.31,7.37a3,3,0,0,0-2.94,2.94v6.38a3,3,0,0,0,2.94,2.94h6.38a3,3,0,0,0,2.94-2.94V10.31a3,3,0,0,0-2.94-2.94Z"/><path class="cls-1" d="M13.5,17.29a3.79,3.79,0,1,1,3.79-3.79A3.79,3.79,0,0,1,13.5,17.29Zm0-6.31A2.52,2.52,0,1,0,16,13.5,2.52,2.52,0,0,0,13.5,11Z"/><circle class="cls-1" cx="17.45" cy="9.49" r="0.91"/><path class="cls-1" d="M13.5,27A13.5,13.5,0,1,1,27,13.5,13.52,13.52,0,0,1,13.5,27Zm0-26A12.5,12.5,0,1,0,26,13.5,12.51,12.51,0,0,0,13.5,1Z"/></g></g></svg>