<svg xmlns="http://www.w3.org/2000/svg" viewBox="0 0 76.47 76.47"><defs><style>.cls-1,.cls-2{fill:none;stroke:#fff;stroke-miterlimit:10;}.cls-2{stroke-width:2px;}</style></defs><title>knowlege</title><g id="圖層_2" data-name="圖層 2"><g id="圖層_1-2" data-name="圖層 1"><path class="cls-1" d="M36.15,41.22l-.62-9.28q-.17-2.71-.17-3.9a3.53,3.53,0,0,1,.84-2.51,2.9,2.9,0,0,1,2.22-.9,2.23,2.23,0,0,1,2.23,1.15,7.81,7.81,0,0,1,.56,3.32,25.21,25.21,0,0,1-.14,2.6l-.83,9.55a7.49,7.49,0,0,1-.58,2.62,1.52,1.52,0,0,1-1.47.91,1.47,1.47,0,0,1-1.45-.88A8.76,8.76,0,0,1,36.15,41.22ZM38.3,54a3,3,0,0,1-2.06-.77,2.68,2.68,0,0,1-.88-2.14,2.88,2.88,0,0,1,2.91-2.89,2.87,2.87,0,0,1,2.08.84,2.75,2.75,0,0,1,.86,2,2.7,2.7,0,0,1-.87,2.13A3,3,0,0,1,38.3,54Z"/><circle class="cls-2" cx="38.23" cy="38.23" r="37.23"/></g></g></svg>