<?xml version="1.0" encoding="utf-8"?>
<!-- Generator: Adobe Illustrator 21.1.0, SVG Export Plug-In . SVG Version: 6.00 Build 0)  -->
<svg version="1.1" id="圖層_1" xmlns="http://www.w3.org/2000/svg" xmlns:xlink="http://www.w3.org/1999/xlink" x="0px" y="0px"
	 viewBox="0 0 28 28" style="enable-background:new 0 0 28 28;" xml:space="preserve">
<title>lang</title>
<g id="圖層_2">
	<g id="圖層_1-2">
		<path d="M14,28h-0.1C6.2,27.9-0.1,21.6,0,13.9c0-3.7,1.5-7.2,4.1-9.8C6.7,1.5,10.3,0,14,0l0,0c7.7,0,14,6.3,14,14S21.7,28,14,28z
			 M14,1c-3.4,0-6.7,1.3-9.2,3.8c-5.1,5.1-5.1,13.3,0,18.4s13.3,5.1,18.4,0c2.4-2.4,3.8-5.7,3.8-9.2c0-3.4-1.3-6.8-3.8-9.2
			C20.8,2.4,17.5,1,14,1L14,1z"/>
		<g id="wBQaXh">
			<path d="M18.5,7L19,7.2c0.2-0.2,0.5-0.2,0.7-0.4s0.2,0,0.3,0.1c0.2,0.4,0.5,0.6,0.6,1c0.1,0.2,0.3,0.3,0.5,0.3c0,0,0,0,0,0
				c0.2-0.1,0.4,0,0.5,0.2c0.1,0.1,0.2,0.2,0.4,0.4s-0.1,0.4-0.4,0.5c-0.3,0.1-0.5,0.3-0.7,0.4C20,9.2,19,9.5,18.5,10.3
				c0.2-0.1,0.4-0.3,0.6-0.4c0.2-0.1,0.6-0.1,0.8,0.1l-0.3,0.2c0.1,0.1,0.2,0.2,0.3,0.4c0.1,0.2-0.1,0.3-0.2,0.4
				c-0.3,0.2-0.7,0.3-1,0.5c-0.1,0.1-0.2,0.2-0.2,0.3c0,0.4-0.2,0.4-0.5,0.5s-0.4,0.1-0.4,0.4s-0.2,0.2-0.4,0.1
				c-0.3,0.4-0.3,0.6,0,0.8c0,0.1-0.1,0.3-0.1,0.4c-0.1,0.3-0.4,0.5-0.7,0.6c-0.2,0.1-0.4,0.2-0.5,0.4c-0.2,0.2-0.1,0.4,0.1,0.5
				c0.1,0,0.1,0.1,0.2,0.1c0,0.3,0.1,0.6,0.1,1c0,0.1-0.1,0.2-0.1,0.2c-0.1,0-0.2,0-0.2-0.1c-0.1-0.2-0.2-0.4-0.2-0.6l-0.2-0.5
				l-0.1,0.1c-0.1,0-0.3-0.1-0.4-0.1c-0.3-0.2-0.6-0.2-0.9-0.1c-0.1,0-0.2,0-0.3,0c0,0.3-0.1,0.4-0.4,0.2c-0.3-0.1-0.7,0-0.9,0.2
				c-0.1,0.1-0.3,0.2-0.5,0.3c0,0.1-0.1,0.1-0.1,0.2c0,0.3,0,0.6,0,0.9c-0.1,0.5,0,1,0.3,1.4c0.3,0.3,0.7,0.5,1.1,0.3
				c0.1-0.1,0.2-0.2,0.3-0.4c0.1-0.3,0.3-0.5,0.6-0.5s0.4,0.1,0.3,0.4s-0.2,0.7-0.3,1.1c0,0.1,0,0.1,0,0.2l0.3-0.1h0.6l0.1-0.1
				c0.1,0.3,0.3,0.6,0.4,0.9c0,0.1,0,0.2-0.1,0.2c-0.1,0-0.2,0-0.2,0.1c0,0.1,0,0.1,0,0.2c0.1,0.2,0.2,0.4,0.3,0.6
				c0.2,0.1,0.4,0.2,0.7,0.2c0,0.1,0,0.1,0,0.2c-0.1,0.2-0.3,0.3-0.4,0.1c-0.1-0.2-0.3-0.3-0.5-0.4c-0.4-0.3-0.8-0.7-0.9-1.2
				c-0.5,0-1-0.2-1.4-0.6c-0.2-0.3-0.5-0.4-0.8-0.2c-0.3,0.1-0.5,0.1-0.8-0.1l-1.1-0.6c-0.2-0.1-0.4-0.3-0.4-0.6
				c-0.1-0.5-0.3-1-0.7-1.3c-0.4-0.5-0.8-1-1.1-1.5c0,0-0.1-0.1-0.1-0.2c0-0.3-0.2-0.3-0.4-0.4c0.1,0.2,0.2,0.5,0.2,0.6
				c0.2,0.4,0.4,0.7,0.6,1c0.1,0.2,0.1,0.4,0.1,0.5H8.2c-0.1-0.3-0.3-0.6-0.7-0.8c0-0.6-0.5-0.9-0.7-1.4c-0.1-0.2-0.2-0.4-0.4-0.6
				c-0.4-0.3-0.8-0.7-1-1.1C5.2,12.9,5,12.5,5,12.1c0-0.4,0.1-0.9,0.1-1.3c0-0.1,0-0.1,0-0.2L5,10.2h0.1l0.3,0.2
				c0.2-0.1,0.2-0.3,0.1-0.4S5,9.6,4.7,9.4S4.4,9.2,4.4,9c0,0-0.2-0.1-0.2-0.1L3.8,8.3C4.1,8,4.3,7.5,4.7,7.1c0.9-1.1,2-2,3.2-2.7
				c0.6-0.3,1.2-0.6,1.9-0.9c0.2-0.1,0.4,0,0.5,0.2c0,0.1,0.1,0.2,0,0.2c0,0.3,0.1,0.4,0.4,0.4l1.2-0.1l0.2,0.5l0,0
				c0-0.2,0-0.4,0.1-0.5s0.3-0.2,0.5-0.3c-0.2-0.1-0.3-0.2-0.4-0.2c-0.1-0.1-0.2-0.1-0.3-0.2c-0.1-0.1-0.1-0.2-0.1-0.3
				c0.1-0.2,0.4-0.2,0.8-0.1s0.3,0.2,0.2,0.5l0.6,0.3c0.3-0.2,0.3-0.2,0.5,0.2s0.3,0.4,0.6,0.1c0.1-0.1,0.1-0.3,0.2-0.4
				c0.1-0.1,0.3-0.1,0.5-0.1c0.1,0,0.2,0.2,0.2,0.4c0,0.1,0,0.2,0,0.3c0,0.1,0,0.3-0.1,0.3s-0.2,0-0.3,0c-0.1,0-0.1,0-0.2-0.1
				c-0.2-0.1-0.4-0.1-0.5,0.1c0,0,0,0.1,0,0.1c-0.1,0.3-0.3,0.6-0.6,0.6c-0.9,0.1-1.1,0.7-1.2,1.4c0,0,0,0.1,0,0L13,7.3
				c0.4,0.1,0.9,0.2,1.3,0.3S14.7,8,15.1,8c0.1,0,0.3,0.2,0.3,0.3s0.1,0.4,0.2,0.5c0.2,0.4,0.5,0.5,0.9,0.1l-0.1-0.2
				c-0.1-0.2-0.1-0.4,0-0.6c0,0,0.1,0,0.1-0.1l0.2-0.2c0.3-0.2,0.3-0.4,0-0.6S16.4,7,16.6,6.7c0.1-0.2,0.1-0.3,0-0.5
				c-0.1-0.3,0-0.5,0.4-0.4s0.9,0.2,1.3,0.4C18.5,6.3,18.7,6.6,18.5,7C18.6,7,18.6,7,18.5,7z M10,4.1C9.7,3.7,9.2,3.7,8.5,4.2
				l0.8,0.5L9.1,4.3L10,4.1z"/>
			<path d="M22.2,22.7c-1.7,1.8-4,3.1-6.4,3.5c-0.1-0.2-0.1-0.5,0.1-0.7c0.1-0.2,0.2-0.3,0-0.5s-0.1-0.4,0-0.5
				c0.1-0.2,0.2-0.3,0.4-0.5c0.3-0.2,0.4-0.6,0.3-1c0-0.2-0.1-0.4-0.1-0.6s0-0.4,0-0.6l0.4,0.1c0.1-0.5,0.5-0.7,0.9-0.9
				s0.4-0.1,0.5,0.2c0.2-0.2,0.4-0.2,0.6,0c0.3,0.2,0.6,0.3,0.9,0.5c0.3-0.3,0.8-0.2,1,0.1c0,0,0,0,0,0c0.2,0.2,0.6,0.3,0.7,0.7
				c0,0.1,0.3,0.1,0.5,0.2L22.2,22.7z"/>
		</g>
	</g>
</g>
</svg>
