<svg xmlns="http://www.w3.org/2000/svg" viewBox="0 0 28.02 28.01"><defs><style>.cls-1{fill:#fff;}</style></defs><title>lang</title><g id="圖層_2" data-name="圖層 2"><g id="圖層_1-2" data-name="圖層 1"><path class="cls-1" d="M14,28H13.9A14,14,0,0,1,4.12,4.08,13.84,13.84,0,0,1,14,0H14a14,14,0,1,1,0,28ZM14,1A12.85,12.85,0,0,0,4.82,4.78,13,13,0,1,0,27,14a12.87,12.87,0,0,0-3.78-9.2A13,13,0,0,0,14,1h0Z"/><g id="wBQaXh"><path class="cls-1" d="M18.54,7l.41.23c.21-.17.55-.16.72-.45s.22,0,.27.08c.17.37.53.61.61,1a.38.38,0,0,0,.5.25.39.39,0,0,1,.49.24c.06.12.2.21.36.35s-.07.38-.37.48a3.51,3.51,0,0,0-.71.43,1.93,1.93,0,0,0-2.37.69,6.14,6.14,0,0,1,.63-.41.63.63,0,0,1,.75.11l-.34.21a2.43,2.43,0,0,1,.26.37c.1.22-.09.3-.23.37-.33.17-.67.31-1,.48-.1.05-.24.17-.24.26,0,.36-.24.42-.48.51s-.39.08-.4.39-.25.24-.43.09c-.33.36-.33.59-.05.82-.05.15-.09.3-.15.44a1.23,1.23,0,0,1-.68.61,1.49,1.49,0,0,0-.5.41c-.16.22-.1.39.13.54.06,0,.15.09.16.15,0,.32.05.64.06,1,0,.07-.07.2-.12.2a.31.31,0,0,1-.24-.11,4.82,4.82,0,0,1-.23-.57l-.21-.54-.05.07c-.14,0-.28-.08-.42-.13a1.07,1.07,0,0,0-.86-.13c-.08,0-.2,0-.29,0,0,.33-.07.37-.41.21a.93.93,0,0,0-.92.2c-.15.13-.33.22-.48.35a.29.29,0,0,0-.07.2,8,8,0,0,1,0,.87,1.89,1.89,0,0,0,.3,1.37,1,1,0,0,0,1.13.3.82.82,0,0,0,.28-.41c.13-.33.29-.48.59-.48s.38.12.28.41-.23.74-.34,1.11a1.07,1.07,0,0,0,0,.22l.29-.15h.61l.08-.09c.14.31.29.62.42.94a.24.24,0,0,1-.09.21A.19.19,0,0,0,15,21a1.55,1.55,0,0,0,.34.57,2.18,2.18,0,0,0,.68.22A1.21,1.21,0,0,1,16,22c-.09.23-.29.29-.45.09a1.74,1.74,0,0,0-.52-.43,2.34,2.34,0,0,1-.93-1.18,1.55,1.55,0,0,1-1.35-.61.61.61,0,0,0-.77-.24.86.86,0,0,1-.76-.1l-1.08-.59a.77.77,0,0,1-.44-.59A2,2,0,0,0,9,17.05a8.43,8.43,0,0,1-1.13-1.5.26.26,0,0,1-.06-.16c0-.29-.18-.33-.44-.43.1.25.16.46.25.65.18.35.39.68.56,1a2.86,2.86,0,0,1,.14.54H8.21a1.47,1.47,0,0,0-.66-.83c0-.58-.49-.93-.66-1.45a1.2,1.2,0,0,0-.45-.58,3.48,3.48,0,0,1-1-1.11,1.93,1.93,0,0,1-.42-1.08c0-.44.07-.87.1-1.31a.87.87,0,0,0,0-.21L5,10.19l.07,0,.3.22c.21-.12.24-.28.05-.43S5,9.58,4.74,9.4,4.37,9.25,4.4,9c0,0-.16-.09-.25-.14l-.36-.53c.27-.37.56-.8.89-1.21A10.76,10.76,0,0,1,7.86,4.45c.6-.33,1.24-.6,1.87-.88a.36.36,0,0,1,.52.39c0,.29.12.43.42.41l1.19-.06.22.49h0c0-.16,0-.36.07-.47s.3-.16.52-.27c-.16-.1-.28-.18-.4-.25A2.23,2.23,0,0,1,12,3.63a.29.29,0,0,1-.07-.26c.07-.21.44-.24.76-.1s.34.25.25.48l.61.31c.29-.2.31-.19.46.16s.29.42.56.08c.1-.12.11-.33.23-.42a.62.62,0,0,1,.48-.12c.11,0,.18.24.24.39a.55.55,0,0,1,0,.26c0,.11,0,.26-.07.32s-.21,0-.32,0a.51.51,0,0,1-.19-.08.39.39,0,0,0-.58.19c-.15.26-.27.59-.62.62-.86.07-1.07.66-1.17,1.37,0,0,0,.08,0,0l.39.51c.44.11.88.19,1.3.33s.48.33.81.29c.1,0,.26.18.34.31s.12.35.2.52c.22.45.51.47.86.07l-.14-.21a.4.4,0,0,1,.13-.63l.22-.15c.29-.23.29-.41,0-.62s-.26-.29-.11-.53a.71.71,0,0,0,0-.49c-.08-.34,0-.49.35-.42s.86.25,1.29.37A.59.59,0,0,1,18.54,7ZM10,4.15c-.29-.46-.83-.42-1.54.09l.76.46-.1-.37Z"/><path class="cls-1" d="M22.23,22.7a11.4,11.4,0,0,1-6.43,3.48.66.66,0,0,1,.06-.7c.09-.17.16-.3,0-.49s-.06-.36,0-.51a1.38,1.38,0,0,1,.37-.48,1,1,0,0,0,.31-1c0-.21-.07-.42-.09-.64s0-.41-.05-.64l.38.14c.1-.49.54-.66.89-.91s.36-.09.46.19c.21-.23.41-.18.65,0a8.85,8.85,0,0,0,.85.46.73.73,0,0,1,1.06.12c.23.22.58.3.68.68,0,.11.34.14.52.21Z"/></g></g></g></svg>