<svg xmlns="http://www.w3.org/2000/svg" viewBox="0 0 29.93 29.96"><defs><style>.cls-1{fill:#fff;}</style></defs><title>lang</title><g id="圖層_2" data-name="圖層 2"><g id="圖層_1-2" data-name="圖層 1"><polygon class="cls-1" points="16 22.59 16.59 24.16 17.95 22.59 16 22.59"/><path class="cls-1" d="M23.46,8.82H15.84l1.81,5.29h1.6a0,0,0,0,0,0,0V13.3a.24.24,0,0,1,.23-.23h.56a.24.24,0,0,1,.23.23v.77a0,0,0,0,0,0,0h2.38a.22.22,0,0,1,.16.07.22.22,0,0,1,.07.16v.51a.22.22,0,0,1-.07.16.22.22,0,0,1-.16.07H22a0,0,0,0,0,0,0,7.38,7.38,0,0,1-1.37,2.35s0,0,0,0a6.31,6.31,0,0,0,2.26,1,.13.13,0,0,1,.1.09.17.17,0,0,1,0,0,.13.13,0,0,1,0,.09l-.23.29a3.77,3.77,0,0,0-.22.32.3.3,0,0,1-.15.13l-.11,0h-.08a6.68,6.68,0,0,1-2.4-1.21,0,0,0,0,0,0,0,6,6,0,0,1-.54.34l1,2.79a1,1,0,0,1-.22,1.09c-.55.61-1.09,1.23-1.66,1.88l-.37.43h5.56c.93,0,1.32-.4,1.32-1.34V10.15C24.79,9.23,24.38,8.82,23.46,8.82Z"/><path class="cls-1" d="M10.49,11.47c-.12.45-.26.92-.41,1.42l-.18.59h1.18l-.18-.59Q10.78,12.49,10.49,11.47Z"/><path class="cls-1" d="M17.45,17.94Q15.3,11.63,13.15,5.32c-.06-.16-.08-.2-.28-.17H6.52c-1,0-1.38.38-1.38,1.36V19.8c0,.94.41,1.35,1.37,1.35h12Zm-4-1.41a.45.45,0,0,1-.39.2h-.49a.65.65,0,0,1-.4-.13.64.64,0,0,1-.25-.36l-.42-1.43h-2l-.43,1.44a.63.63,0,0,1-.25.35.66.66,0,0,1-.41.13H8a.45.45,0,0,1-.4-.21.44.44,0,0,1-.08-.26.65.65,0,0,1,0-.13l2-6.17a.69.69,0,0,1,.24-.34.67.67,0,0,1,.41-.14h.6a.66.66,0,0,1,.4.13.68.68,0,0,1,.25.34l2,6.14a.71.71,0,0,1,0,.16A.46.46,0,0,1,13.43,16.54Z"/><path class="cls-1" d="M18.85,17.61l.12-.07a0,0,0,0,0,0,0c-.1-.13-.2-.26-.3-.4Z"/><path class="cls-1" d="M26.27,0H3.66A3.71,3.71,0,0,0,0,3.66V26.31A3.71,3.71,0,0,0,3.66,30H26.27a3.71,3.71,0,0,0,3.66-3.66V3.69A3.71,3.71,0,0,0,26.27,0Zm-.06,24.12a2,2,0,0,1-2.11,2.11H16l-.07-.11c-.13-.19-1.05-2.37-1.36-3.27-.08-.25-.15-.29-.42-.29H6.39a2.39,2.39,0,0,1-2.68-2.1V5.84A2,2,0,0,1,5.82,3.73H14l.07.12a2.86,2.86,0,0,1,.24.55c.32.89.63,1.77.91,2.67.08.27.16.33.44.33h0c2,0,4.08,0,6.13,0h1.72c1.72,0,2.67.74,2.67,2.09Z"/><path class="cls-1" d="M19.83,16.76a5.6,5.6,0,0,0,1-1.66s0,0,0,0h-2s0,0,0,0a5.82,5.82,0,0,0,1,1.66A0,0,0,0,0,19.83,16.76Z"/></g></g></svg>