<svg xmlns="http://www.w3.org/2000/svg" viewBox="0 0 28.93 28.93"><defs><style>.cls-1{fill:#855e00;}</style></defs><title>location</title><g id="圖層_2" data-name="圖層 2"><g id="圖層_1-2" data-name="圖層 1"><path class="cls-1" d="M14.47,28.93A14.47,14.47,0,1,1,28.93,14.47,14.48,14.48,0,0,1,14.47,28.93Zm0-28A13.53,13.53,0,1,0,28,14.47,13.55,13.55,0,0,0,14.47.93Z"/><path class="cls-1" d="M14.69,7.16A4.67,4.67,0,0,0,10,11.83c0,4.46,4.67,10.28,4.67,10.28s4.67-5.82,4.67-10.28A4.67,4.67,0,0,0,14.69,7.16Zm0,7.25a2.52,2.52,0,1,1,2.52-2.52A2.52,2.52,0,0,1,14.69,14.41Z"/></g></g></svg>