<?xml version="1.0" encoding="utf-8"?>
<!-- Generator: Adobe Illustrator 21.1.0, SVG Export Plug-In . SVG Version: 6.00 Build 0)  -->
<svg version="1.1" id="圖層_1" xmlns="http://www.w3.org/2000/svg" xmlns:xlink="http://www.w3.org/1999/xlink" x="0px" y="0px"
	 viewBox="0 0 28.9 28.9" style="enable-background:new 0 0 28.9 28.9;" xml:space="preserve">
<style type="text/css">
	.st0{fill:#FFD732;}
</style>
<title>location</title>
<g id="圖層_2">
	<g id="圖層_1-2">
		<path class="st0" d="M14.5,28.9C6.5,28.9,0,22.5,0,14.5S6.5,0,14.5,0s14.5,6.5,14.5,14.5c0,0,0,0,0,0
			C28.9,22.5,22.5,28.9,14.5,28.9z M14.5,0.9C7,0.9,0.9,7,0.9,14.5S7,28,14.5,28C21.9,28,28,21.9,28,14.5C28,7,21.9,0.9,14.5,0.9z"
			/>
		<path class="st0" d="M14.7,7.2c-2.6,0-4.7,2.1-4.7,4.6c0,0,0,0,0,0c0,4.5,4.7,10.3,4.7,10.3s4.7-5.8,4.7-10.3
			C19.3,9.3,17.3,7.2,14.7,7.2z M14.7,14.4c-1.4,0-2.5-1.1-2.5-2.5s1.1-2.5,2.5-2.5s2.5,1.1,2.5,2.5l0,0
			C17.2,13.3,16.1,14.4,14.7,14.4z"/>
	</g>
</g>
</svg>
