<svg xmlns="http://www.w3.org/2000/svg" viewBox="0 0 196 166.31"><defs><style>.cls-1{fill:#fff;}</style></defs><title>logo</title><g id="圖層_2" data-name="圖層 2"><g id="圖層_1-2" data-name="圖層 1"><g id="SftoHe"><path class="cls-1" d="M109.06,41.73l-1.88-6-.6,0-1.3,11.5-.67.14-3.55-7.15a6.69,6.69,0,0,0-1,1.82A38.89,38.89,0,0,0,99.63,47a16.41,16.41,0,0,1-2.71,8.82C96,57.25,96,59.26,95.7,61a31.61,31.61,0,0,0,0,4.14l-2-1.82L90.76,71l-.58-.1,1.4,2.1-4.65,1,3,2L85.3,78.39l-.07.57,7.28,2.36-2.7,1.28-.24,2.35A50.89,50.89,0,0,1,82.52,87c-2,.31-3.88.44-5.55,2.41l6.14,1.64-2.49,2L85,96.89c-2,2-4.44,2.1-7.31,2.66l4.06-3L78.42,94l.4-2.16-7.06-2.23c1.66-3.29,5.43-1.46,7.27-4.38l-5.91-1.57,0-.28,9.49-1.65c-1.74-2.13-3.89-1.48-5.3-2.54l-3.75-2.89,6.19-1,0-.7-5.12-.86,0-.78a18.93,18.93,0,0,1,3.6-.65c3.48,0,6.52-1.27,9.47-2.86,4.32-2.32,4.79-9.07.88-12C86.79,56.22,85,55,82.92,53.55c-.64,1.43-1.24,2.64-1.72,3.9s-.79,2.44-1.4,4.34L78,59.11l-.75.07-1.62,7-4,3.53,1.74,2.08c-3.7,1.34-7.48-1.32-11,.73l.31,1.83c-2.75-.91-5.34-2.86-8.53-.43l3.2,1.36-.15.62-5.31-.95L52.5,72l-4.43-.56-.14-.68c.73-.2,1.46-.46,2.2-.6s1.92.07,2.59-.35c3.07-1.92,6-1.43,8.85.3.42.25.86.45,1.32.69l4.65-5.26.56.29.24,2.87.67.39c.6-.6,1.45-1.11,1.74-1.84a20.83,20.83,0,0,0,.74-3.61c.64-3.19,1.3-6.39,2-9.84l3.41,1.23c2.72-3.11,2.22-7.2,3.35-11.21A79.52,79.52,0,0,1,89.74,55.8l3.72-10.68c2.11-.95,2.75-3.59,3.16-6.16L101,36l1.86,3.15.7,0,1.1-6.66C107.74,32.86,109.18,36.82,109.06,41.73Z"/><path class="cls-1" d="M100.73,148.17c-1.68,6.07-.89,11.92-1.09,17.84H90.2c-1.48-7.63,1.34-27.14,9-31.44,4.47,2.66,7.1,7.25,10.52,11.06l.5-.27-5.11-10.64h7c6.14,9.33,7.9,20,8.51,31.26h-8.57C109.41,159.66,106.59,153.18,100.73,148.17Z"/><path class="cls-1" d="M73.75,108.15c1.76.52,3.33.87,4.81,1.45,3.8,1.48,7.56,3.06,11.33,4.6l.31-.69-11.1-5.85,14.81-3.8c2.42,5.43,7.31,7.84,13.34,8.62-4.76-2.36-9.37-4.8-8.56-11.32L106.73,95c1.34,4,2.75,5,7.09,5.09,6.35.07,12.37-1.77,18.42-3.4,3.64-1,7.25-2.1,11-3-2.21,2.84-4,6-7.95,7-6,1.46-12,2.81-18.35,2.84,1.69,1.7,4,1.95,6.11,2.17a68.57,68.57,0,0,0,6.86,0c-4.53,5.77-17.3,4.31-23.83-1.93.86,5.25,4.66,7.57,9.71,9.08A54.43,54.43,0,0,1,101.1,116a50.24,50.24,0,0,1-25.3-4.44A3,3,0,0,1,73.75,108.15Z"/><path class="cls-1" d="M195.22,166h-10.7l-3.43-4.43-.5.11-.45,4.25h-8a5,5,0,0,1-.29-1.26c.07-6.06.73-12,3.13-17.65a29.11,29.11,0,0,1,3.11-5.6c4.25-5.88,10.11-7.88,17.17-6.69,2.45,7.45-1.61,17.25-9.06,21.34Zm-6.45-23.63c-3.29-.61-5.88,2-6.2,6.27C186.36,148.88,188.86,146.35,188.77,142.32Z"/><path class="cls-1" d="M119,134.82c12.1-2.6,29.11,10.46,23.52,31.19H125.21c-.8-5.39-1.39-10.71-2.42-15.94S120.29,139.9,119,134.82Zm17.61,24.08c-.12-6-2-10.7-6.37-14.28l-.63.21,3,14.07Z"/><path class="cls-1" d="M82.78,134.88c3,10.06,3.24,20.47,3,31.12H78l-.22-4.06c-4.68,3.31-9.45,5.45-15.5,3.81.42-2.63.7-5.39,1.31-8.07a44.24,44.24,0,0,1,10.07-19.83C76.1,135.08,78.78,133.87,82.78,134.88Zm-4.66,21.2v-11.3l-.62-.1A35.12,35.12,0,0,0,71.18,159Z"/><path class="cls-1" d="M171,134.48l-1.36,8.28c-3.6.63-7.17,1.19-9.95,4.7h7.19l-.8,6.77c-3.34.7-6.68,1.28-9.1,4.72h11l-.57,7H146.69c.19-2.62.28-5.22.59-7.79.67-5.55,2.17-10.85,5.59-15.38C157.3,136.93,163.25,134.22,171,134.48Z"/><path class="cls-1" d="M64.35,134.79c-9.61,5.11-14.9,12.87-15.27,24.19H59.66L59,166H38c.47-2.94.79-5.69,1.37-8.39,1.12-5.28,2.92-10.31,6.3-14.62C50.4,137,56.81,134.7,64.35,134.79Z"/><path class="cls-1" d="M137.35,26.74l-3.14,3.44c-4,.14-7.34,1.6-8.28,6.41h-4.18a48.52,48.52,0,0,0,.28-4.85,1.83,1.83,0,0,0-2.17-1.85c-1.15.08-1.4.48-1.43,2.42l2.24.78-1.1,1.71h-8.16l-1.59-7.37,5.4,2.53,3.13-4.12,5,1.35c.1-2.6-.77-3.23-5.65-3.75-.52-.86-1-1.79-1.63-2.66s-1.28-1.66-2.23-2.88L121,19.05c.87,2.72,2.62,4.71,6.47,4.64-1.76-2-3.84-3.36-3.6-6,2.47-3.45,2.47-3.45.22-6.83,3.79-2.46,10-.47,14.09,4.48l-2.78,6.14H132.9l.58-2.53c-.74-.32-1.62-1-2.33-.9s-1.59,1.38-1.45,1.82a8.13,8.13,0,0,0,2.06,3.44c.93.85,2.36,1.11,3.5,1.76A16.68,16.68,0,0,1,137.35,26.74Z"/><path class="cls-1" d="M17.27,149.6c.31,1.23.48,2.19.79,3.1a3.91,3.91,0,0,0,4.31,2.94c2-.16,3-1.18,3.26-3.63.21-2.21.11-4.45.34-6.66.7-6.72,4.93-10.83,11-10.76a6,6,0,0,1,1,.22c-.63.53-1.1.94-1.58,1.32a9.43,9.43,0,0,0-3.55,11c.44,1.49,1.11,2.92,1.63,4.39a11.08,11.08,0,0,1-3.29,12.09c-3.34,2.77-7.89,3-12,.58A7.62,7.62,0,0,1,15,156.81,14.07,14.07,0,0,1,17.27,149.6Z"/><path class="cls-1" d="M113,42.39c2.16,3.32,2,5-.13,7.3C107,56.08,103,63.3,102.32,72.09c-.16,2-.23,4.09,1,5.87,6.3-1.42,11.94-13.23,9.54-21.87-3.29,2.36-6.26,4.74-6.93,8.87a7.48,7.48,0,0,0,.82,3.48c.8,2.13.48,3.4-1.65,4.7a12.93,12.93,0,0,1-.91-2.71,15,15,0,0,1,2.26-9.93,44,44,0,0,1,8.27-9.34c.61,2.73,1.24,4.9,1.58,7.12,1.26,8.17-.71,15.22-7.4,20.55-1.68,1.34-3.32,2.72-5.2,4.25a16.09,16.09,0,0,1-4.17-12.44,35.77,35.77,0,0,1,4.58-13.76C106.89,52,110,47.21,113,42.39Z"/><path class="cls-1" d="M14.88,135A111.75,111.75,0,0,0,10,166H0C.23,163,.34,160,.7,157a36.42,36.42,0,0,1,6-16.85,37.63,37.63,0,0,1,3.76-4.25A3.78,3.78,0,0,1,14.88,135Z"/><path class="cls-1" d="M166.67,34.39c-4-3.09-8.66-4.63-13.48-5.81-2.82-.69-3.87-2.15-3.71-5.26,8.85,2.9,17.26,6.5,24.08,13.05,4.12,4,4.93,8.84,4.16,14.27-3.6-.65-7-1.16-10.36-1.88a15.49,15.49,0,0,1-8.67-5.35c-2.66-3.13-5.24-8.82-5.44-12.27,4.71.1,9,1.67,13.11,3.6,2.36,2.33,5.38,4.28,5,8.41-2.29.07-3-1.15-3.36-2.82a9,9,0,0,0-.88-3c-1.74-2.67-7.18-4.21-10.38-3.1C159,40.57,166.53,46.26,173,46.39a15,15,0,0,0,2.81-.53C174.33,40.48,170.86,37.15,166.67,34.39Z"/><path class="cls-1" d="M112.8.65c3.13,4,2.74,7-1.19,10.95.3,2.35,1,2.71,3.22,1.59,3.89-2,5.75-1.76,8.38,1a6.68,6.68,0,0,1-8.62,2.37c-.37-.17-.73-.55-1.09-.55a10.88,10.88,0,0,0-2,.35,7.87,7.87,0,0,0,.48,2c.25.47.86.75,1.27,1.15,2.52,2.44,2.77,4.91.83,8-3.57-1-4.4-2.7-4.13-8.61-1.94-1.35-2.55-1.12-3.14,1.15-1,3.76-3.14,5.53-7.17,5.89-1.12-3.22,1.86-7.61,5.06-8.06.56-.08,1.29-.12,1.61-.48a2.6,2.6,0,0,0,.71-1.86c-.06-.42-.87-.86-1.43-1s-1,.11-1.45.17C100.24,15,97.53,13,96.77,9c3.13-2.33,6.57-1.59,9.31,2,1.58,2.08,2,2.17,4.2.74C108,7.52,109.09,3.87,112.8.65Z"/><path class="cls-1" d="M45.11,83.25a50.63,50.63,0,0,1-5.87-23A64.81,64.81,0,0,1,43.16,36c1.6-4.44,1.66-4.49,6.57-5.78,1.38,2.25,2.16,4.3.93,7.21-5.92,14-7.35,28.31-2.69,43a8.29,8.29,0,0,1,.2,1.22Zm-.52-40.12,3.49-1.86-1.75-3.55-3.51,1.89Zm1.62,5.17-2.57-3-3,2.61,2.66,2.91Zm-.78,6.93L43.07,53,40,55.18l2.84,3Zm5.14-20.92L49,31.24l-3.38,1.52,1.43,3.06ZM42.89,59.65l-2.74,2.23,2.21,2.35L45.19,62ZM41.65,73.44,44,75.19l1.79-2.47L43.37,71Zm.88-7.7-1.87,2.41L43,70l1.81-2.31Zm2.72,14.17,1.3-2.3-2.19-1.24L43.1,78.54Z"/><path class="cls-1" d="M143.22,59.33,142,64.41l.93.52c.74-.82,1.92-1.54,2.15-2.49,1.36-5.52,5.76-7.4,10.61-9.42.6,3.1.67,5.75-1.4,8.21a3.49,3.49,0,0,1-.89-.4c-2.62-2.3-5.82,0-6.33,2.7a25,25,0,0,1-.7,3.13c-1.4,4.32-4.79,6.12-9.11,4.71a22.78,22.78,0,0,1-3.92-2c-.57-.32-1-.81-1.6-1.15C128.21,66,125.8,67,125,71c-2.86-.55-3.82-1.59-4-4.51,4.44-2,8.9-3.32,13.42,0a3,3,0,0,0,3.76,0c-.59-2-2.53-2.29-4.56-3.31Z"/><path class="cls-1" d="M144.16,27.8a10.47,10.47,0,0,1-4.63,9.75c-.46.34-1,.62-1.46.92-2.91,1.79-2.93,3.3,0,5.4,1.3-.11,3-1.27,3.91.88.45,1.1.75,2.26-.77,2.86-3.13-1.38-3.42-1.27-4.33,1.76-.69,0-1.46,0-2.23,0s-1.43-.07-1.9-.09c-1.41,1.11-.65,3.79-3.16,3.48-1.55-2.18-1.38-3.83.53-5.34.26-.2.56-.35.83-.54a2.3,2.3,0,0,0,.63-3.27c-.66-1.27-1.72-1.32-3-.86-3.41,1.25-6.73,1.36-9.91-.77,2.17-3.08,7.18-4.39,11.07-3,3.54,1.3,4.23.94,5.17-2.7C136.32,31.15,139.38,28.26,144.16,27.8Z"/><path class="cls-1" d="M111.13.55c-3.44,3.08-4.13,6.52-2,10.48l-.48.33c-.55-.27-1.38-.39-1.6-.83a7.68,7.68,0,0,0-6-4.33l4-2.7c-1.77-.77-2.92,0-4.12,1A25.15,25.15,0,0,1,97.24,7a2.67,2.67,0,0,0-1.59,3.2,19.31,19.31,0,0,1,.11,3.84c-.05,1.63-.25,3.28,1.71,4.19L97,13.7a31.12,31.12,0,0,0,4.5,1.83c1.3.3,2.7.13,4.24.62-4.24,1.32-7.07,3.72-7.76,8.72-3.86-5.28-6.6-10.32-6.52-16.46a5.48,5.48,0,0,1,1.17-3.15C95.78,1.4,105.72-1.18,111.13.55Z"/><path class="cls-1" d="M149.19,50.15c3-.27,3-.29,2.84-2.83-2.3-.32-4.76,1.72-7-.14l-1.38-4.45c1.79-1.44,4.45-1.84,5.42-4.23l-.3-.72a15.7,15.7,0,0,0-2.62.94c-1.57.89-3,2-4.6,2.88-1.17.64-2.48.91-3.55-.41a85.42,85.42,0,0,0,6.34-6.43c2-2.44,2.25-5.54,2-8.76,5,3,6.7,9.91,3.69,14.36A28.35,28.35,0,0,0,148,43.43a11.44,11.44,0,0,0-.56,2.76l6.25-5.27c1,3.32,1.43,6.13.5,8.9a3.76,3.76,0,0,1-2.42,2c-.83.19-1.89-.6-2.84-1Z"/><path class="cls-1" d="M71.1,97.4c-1.2-1.25-2.49-2.43-3.56-3.78a4.63,4.63,0,0,0-5-1.7l-2.79.93,6.5,8.34-1.62.61-.21,1.6c-2.72.25-13.31-15.56-14.47-21.71.62.51,1.13.87,1.58,1.3a13,13,0,0,0,7.15,3.64,25.56,25.56,0,0,1,4.76,1.3c4.49,1.61,6.85,4.24,8.27,9Z"/><path class="cls-1" d="M148.56,53.89l-19,8.16c-1.82-3.27-1.55-6.14,1.27-7.7a59.26,59.26,0,0,1,11.27-4.84C145.43,48.49,147.38,50,148.56,53.89ZM131,58.55a83.41,83.41,0,0,0,13.24-5.62C142.21,52.46,132.16,56.74,131,58.55Z"/><path class="cls-1" d="M126.85,60.78c-.41.77-.7,2-1.27,2.19a3.54,3.54,0,0,1-2.88-.58c-1.94-1.79-2.58-4.28-3.07-7.28l5.09.84c.17-1.36-.84-1.92-2-2a4.56,4.56,0,0,1-4-2.88,50.12,50.12,0,0,1-3.15-7.94c4.36,3.57,9.29,2.29,14.14,2.05-1.91,3.94-6.83,2.6-9,5.66,1.09,1,1.09,1,5.21-.23l2.21,4.3c-.09,3-3.61,2.81-5.36,4.76L124,61.52l2.34-1.06Z"/><path class="cls-1" d="M62.21,23.39,59,27l-5.21-.48c7.92-6.57,24.41-5.6,30.42,2l-6.42,3L77.12,26l-5.5,2.88L69.47,23.6l-4.41,4Z"/><path class="cls-1" d="M126.13,88.57l-4.43,1.1,2.66,6.06L122,96.4l-.57-6.65-4.37.92c-.22,2.55.74,4.4,3.19,6l-3.55.79-.51-6.62L111.58,92l2.31,6.15-2.31.61L111,91.07l6.76-11.53,10.16,8.07-1.33,1.46,2.53,5.64-2.44.63ZM118.26,82,114,89.18l.32.44,9.82-2.3v-.59Z"/><path class="cls-1" d="M131.46,86.56l5.82-12.13,9.79,7.94c-1.84,2.82.25,5,1.25,7.5l-2.17.57-.58-6.93-4.09,1.07L144,91l-2.17.59-.58-6.9-4,1c-.3,2.56.75,4.49,2.72,6.42l-3.07.8-.44-6.95-3.75.9,2.13,6.45-2.55.8C132.9,91.34,133.05,88.89,131.46,86.56ZM137.69,77l-3.25,7.22.55.34L144.28,82Z"/><path class="cls-1" d="M76.83,40.79H71l1.26-4.63L67,36.52v-5l-5,1.63-.92-4.36L57.2,30.55l-4.1-2.23C62.14,25.65,75.39,32.6,76.83,40.79Z"/><path class="cls-1" d="M140,73.54l15.25-4.28-5.1,11.93Z"/><path class="cls-1" d="M53.21,24.58c3.18-8.18,17.73-13.9,23.25-10.41l-2.72,4L70.8,15.07l-2.42,3.62-3.72-2.34L63.12,20.4l-3.36-1.48-.68,3.28Z"/><path class="cls-1" d="M120.29,78.74l13.54-3.65L129,86.24Z"/><path class="cls-1" d="M113.39,12l5.16-5.7H116.7l-.77-4.79A25.15,25.15,0,0,1,129,7.81c-2.86.34-5.65.33-8.21,1.08s-4.75,2.26-7.12,3.43Z"/><path class="cls-1" d="M51.07,29.63c8.24,2.81,13.72,10.48,12.61,17.29L59,44.8,61.5,42l-3.65-1.77,1.68-3.37-3.85-.64L56.46,33l-3.3-.42Z"/><path class="cls-1" d="M35.62,31.58l-4-1.12-.44,3.31-4.13-1c2.65-5.31,14.16-7.64,21-4.4-2.55,1.26-2.92,1.22-5.85-.77l-1.91,2.56L36.91,28.3Z"/><path class="cls-1" d="M45.11,83.25l3.07-1.66a76.23,76.23,0,0,0,10.73,19.29C53.18,95.88,48.28,90.25,45.11,83.25Z"/><path class="cls-1" d="M139,26.14c-2.07-3.33-1.85-6.11.74-9.33a12.48,12.48,0,0,1,5.08,6.34Z"/><path class="cls-1" d="M45.06,22.29l-2.78,1.47-2.1-3.92-2.39,3-2.89-3.55-1.58,3.59-3-3.67c3.85-2.56,10.72-1.17,14.94,2.9Z"/><path class="cls-1" d="M127.58,72.6l-.68-3c1-1.58,2.1-1.3,3.25-.57,1.87,1.18,3.72,2.39,5.75,3.69-2.92,1.53-4.84-.28-7-1.72l1,2.28c-2.48,2.46-6.75,1.76-8.74-1.53C123.38,72.25,125.24,74.07,127.58,72.6Z"/><path class="cls-1" d="M153.31,65.35l2.57-3.18c0,3.76-1.85,5.71-4.93,5.11l-.37-2.91c-1.15,1.93-.4,4.84-3.63,5a44,44,0,0,1,1.73-5.47,3.88,3.88,0,0,1,2.3-2.08c1.37-.25,1.52,1.12,1.64,2.22C152.64,64.33,152.89,64.59,153.31,65.35Z"/><path class="cls-1" d="M108.64,20.54V32.73l-6.93-5.27,2.47-1.12,1.09,1.32,2.66-7.25Z"/><path class="cls-1" d="M50.95,24.24c-2-.84-1.21-2.39-1-3.92l-2.48-.47.32-2.92-2.85.2-.44-3L41.82,15l-.49-3.39C47.24,12.78,51.62,18.65,50.95,24.24Z"/><path class="cls-1" d="M132.76,37.63,128,36.86c.35-3.27,2.68-4.66,6.43-3.7Z"/><path class="cls-1" d="M120.72,37.47l-6.25,3.08-2.34-3.29C115.15,36,117.72,35.81,120.72,37.47Z"/><path class="cls-1" d="M83.22,35.75l-4.37-3.25,5-1.73Z"/><path class="cls-1" d="M71.35,42.25l5.17.37-2.29,4.76Z"/><path class="cls-1" d="M73.52,107.06,72,107.2v2l-.62.27-2-3.48.43-.62,3.88,1Z"/><path class="cls-1" d="M123.07,75.87,119,77l.9-4.17Z"/><path class="cls-1" d="M45.29,22.08l4.23,3.87-.34.46-2.88-1-1.23-3.12Z"/><path class="cls-1" d="M77.44,15.54l1.62,3.14-4.18-.25Z"/><path class="cls-1" d="M69.38,103.87l-1.61.44.3,2.16-.59.27-1.73-3.48.43-.59,3.24.63Z"/><path class="cls-1" d="M27.4,37.44l-.52-3.36,3.63.56Z"/><path class="cls-1" d="M28.61,24.21l.93-3.5L32.3,23.3Z"/><path class="cls-1" d="M76,27.73l.18,3.08-3.06-1.14Z"/><path class="cls-1" d="M59.12,45.95l2.81,1.71-2.81,2.13Z"/><path class="cls-1" d="M117.11,87.76l1.39-3.26,2.71,2.23Z"/><path class="cls-1" d="M138.18,79.32,141,81.54l-3.82,1.07Z"/></g></g></g></svg>