<svg xmlns="http://www.w3.org/2000/svg" viewBox="0 0 47.14 40"><defs><style>.cls-1{fill:#4d4d4d;}</style></defs><title>logo-main</title><g id="圖層_2" data-name="圖層 2"><g id="圖層_1-2" data-name="圖層 1"><g id="SftoHe"><path class="cls-1" d="M26.23,10l-.45-1.44h-.14l-.31,2.77-.16,0-.85-1.72a1.61,1.61,0,0,0-.24.44,9.35,9.35,0,0,0-.1,1.18,4,4,0,0,1-.65,2.12,3.25,3.25,0,0,0-.3,1.25,7.6,7.6,0,0,0,0,1l-.49-.44-.69,1.84-.14,0,.34.5-1.12.25.72.49-1.11.56,0,.14,1.75.57-.65.31-.06.56a12.24,12.24,0,0,1-1.7.5,1.84,1.84,0,0,0-1.34.58L20,21.9l-.6.48,1,.92a3,3,0,0,1-1.76.64l1-.73-.79-.61.1-.52-1.7-.54c.4-.79,1.31-.35,1.75-1.05l-1.42-.38v-.07l2.28-.4c-.42-.51-.94-.36-1.27-.61l-.9-.7,1.49-.24v-.17l-1.23-.21v-.19a4.55,4.55,0,0,1,.87-.16,4.7,4.7,0,0,0,2.28-.69,1.77,1.77,0,0,0,.21-2.88c-.41-.3-.84-.59-1.34-.95-.15.34-.3.64-.41.94s-.19.59-.34,1l-.44-.64-.18,0-.39,1.68-1,.85.42.5c-.89.32-1.8-.32-2.65.18l.07.44c-.66-.22-1.28-.69-2.05-.1l.77.33,0,.15L12.47,18l.16-.7-1.06-.13,0-.16c.18,0,.35-.11.53-.14s.46,0,.62-.08a1.89,1.89,0,0,1,2.13.07l.32.17,1.12-1.27.13.07.06.69.16.09c.14-.15.35-.27.42-.44a5,5,0,0,0,.18-.87L17.68,13l.82.29c.65-.75.53-1.73.81-2.7a19.13,19.13,0,0,1,2.28,2.87l.89-2.57c.51-.23.66-.86.76-1.48l1-.7.45.76h.17l.26-1.6C25.91,7.9,26.26,8.86,26.23,10Z"/><path class="cls-1" d="M24.23,35.64A17.63,17.63,0,0,0,24,39.93H21.69c-.36-1.83.32-6.53,2.16-7.56A12.12,12.12,0,0,1,26.38,35L26.5,35,25.27,32.4H27a14.65,14.65,0,0,1,2,7.52H26.95A10.56,10.56,0,0,0,24.23,35.64Z"/><path class="cls-1" d="M17.74,26c.42.13.8.21,1.16.35.91.36,1.82.74,2.72,1.11l.07-.17L19,25.89,22.58,25a3.71,3.71,0,0,0,3.21,2.07c-1.14-.57-2.25-1.15-2.06-2.72l1.94-1.48c.32,1,.66,1.21,1.7,1.22a16.29,16.29,0,0,0,4.43-.82c.88-.24,1.74-.5,2.65-.71-.53.68-1,1.45-1.91,1.68a19,19,0,0,1-4.41.68,2.25,2.25,0,0,0,1.47.52,16.49,16.49,0,0,0,1.65,0c-1.09,1.39-4.16,1-5.73-.46.21,1.26,1.12,1.82,2.34,2.18a13.09,13.09,0,0,1-3.54.74,12.08,12.08,0,0,1-6.08-1.07A.73.73,0,0,1,17.74,26Z"/><path class="cls-1" d="M47,39.91H44.38l-.82-1.07-.12,0-.11,1H41.41a1.19,1.19,0,0,1-.07-.3,11,11,0,0,1,.75-4.25A7,7,0,0,1,42.84,34,3.92,3.92,0,0,1,47,32.39a4.6,4.6,0,0,1-2.18,5.13ZM45.4,34.23c-.79-.15-1.41.48-1.49,1.51A1.34,1.34,0,0,0,45.4,34.23Z"/><path class="cls-1" d="M28.62,32.43c2.91-.62,7,2.51,5.66,7.5H30.12c-.19-1.3-.33-2.58-.58-3.83S28.93,33.65,28.62,32.43Zm4.24,5.79a4.25,4.25,0,0,0-1.53-3.43l-.15.05.72,3.38Z"/><path class="cls-1" d="M19.91,32.44a23.85,23.85,0,0,1,.72,7.48H18.77l-.05-1a4.21,4.21,0,0,1-3.73.92c.1-.63.17-1.3.31-1.94a10.64,10.64,0,0,1,2.42-4.77A2,2,0,0,1,19.91,32.44Zm-1.12,5.1V34.82l-.15,0a8.45,8.45,0,0,0-1.52,3.44Z"/><path class="cls-1" d="M41.12,32.34l-.33,2a3.41,3.41,0,0,0-2.39,1.13h1.73l-.19,1.63a3.07,3.07,0,0,0-2.19,1.13h2.63l-.14,1.69h-5c0-.63.07-1.26.14-1.87a7.46,7.46,0,0,1,1.34-3.7A4.9,4.9,0,0,1,41.12,32.34Z"/><path class="cls-1" d="M15.48,32.42a6.4,6.4,0,0,0-3.67,5.82h2.54l-.16,1.69h-5c.11-.71.19-1.37.33-2A8.38,8.38,0,0,1,11,34.4,5.25,5.25,0,0,1,15.48,32.42Z"/><path class="cls-1" d="M33,6.43l-.76.83a1.83,1.83,0,0,0-2,1.54h-1a11.67,11.67,0,0,0,.07-1.17.44.44,0,0,0-.52-.44c-.28,0-.34.12-.34.58L29,8l-.26.41h-2L26.41,6.6l1.3.61.75-1,1.2.33c0-.62-.19-.78-1.36-.9-.12-.21-.25-.43-.39-.64s-.31-.4-.54-.69l1.73.28A1.44,1.44,0,0,0,30.67,5.7c-.42-.48-.92-.81-.87-1.44.59-.83.59-.83.05-1.64.91-.59,2.41-.11,3.39,1.08l-.67,1.48H32l.14-.61c-.18-.08-.39-.25-.56-.22s-.38.33-.35.44a2,2,0,0,0,.5.83,4.55,4.55,0,0,0,.84.42A4,4,0,0,1,33,6.43Z"/><path class="cls-1" d="M4.15,36c.07.3.11.53.19.74a.94.94,0,0,0,1,.71c.48,0,.73-.28.78-.87s0-1.07.08-1.6a2.59,2.59,0,0,1,2.64-2.59,1.45,1.45,0,0,1,.23.05l-.38.32a2.27,2.27,0,0,0-.85,2.63c.11.36.27.7.39,1.06a2.67,2.67,0,0,1-.79,2.91,2.46,2.46,0,0,1-2.89.14,1.83,1.83,0,0,1-1-1.77A3.38,3.38,0,0,1,4.15,36Z"/><path class="cls-1" d="M27.17,10.2c.52.8.48,1.19,0,1.75a9,9,0,0,0-2.53,5.39,2.09,2.09,0,0,0,.24,1.41c1.51-.34,2.87-3.18,2.29-5.26a3.36,3.36,0,0,0-1.67,2.13,1.8,1.8,0,0,0,.2.84.79.79,0,0,1-.4,1.13,3.11,3.11,0,0,1-.22-.65,3.6,3.6,0,0,1,.54-2.39,10.58,10.58,0,0,1,2-2.25c.15.66.3,1.18.38,1.71A4.91,4.91,0,0,1,26.19,19l-1.25,1a3.87,3.87,0,0,1-1-3A8.6,8.6,0,0,1,25,13.68C25.71,12.5,26.46,11.36,27.17,10.2Z"/><path class="cls-1" d="M3.58,32.47a26.88,26.88,0,0,0-1.17,7.46H0c.06-.74.08-1.46.17-2.18A8.76,8.76,0,0,1,1.61,33.7a9,9,0,0,1,.9-1A.91.91,0,0,1,3.58,32.47Z"/><path class="cls-1" d="M40.09,8.27a8.42,8.42,0,0,0-3.24-1.4A1,1,0,0,1,36,5.61a14.58,14.58,0,0,1,5.79,3.14,3.7,3.7,0,0,1,1,3.43c-.87-.16-1.68-.28-2.49-.45a3.73,3.73,0,0,1-2.09-1.29,6.16,6.16,0,0,1-1.31-3A7.84,7.84,0,0,1,40,8.35c.57.56,1.29,1,1.21,2-.55,0-.72-.28-.81-.68A2.18,2.18,0,0,0,40.2,9a2.5,2.5,0,0,0-2.5-.75,4.73,4.73,0,0,0,3.92,2.93A3.61,3.61,0,0,0,42.3,11,4.82,4.82,0,0,0,40.09,8.27Z"/><path class="cls-1" d="M27.13.16c.75,1,.66,1.69-.29,2.63.07.57.25.65.77.38.94-.48,1.38-.42,2,.24A1.61,1.61,0,0,1,27.56,4c-.09,0-.18-.13-.26-.13a2.62,2.62,0,0,0-.47.08,1.89,1.89,0,0,0,.12.47c.06.11.21.18.31.28a1.34,1.34,0,0,1,.2,1.91c-.86-.23-1.06-.65-1-2.07-.47-.32-.61-.27-.76.28A1.72,1.72,0,0,1,24,6.22a1.65,1.65,0,0,1,1.22-1.94c.13,0,.31,0,.39-.11a.63.63,0,0,0,.17-.45c0-.1-.21-.21-.34-.25s-.23,0-.35,0a1.5,1.5,0,0,1-1.78-1.33,1.5,1.5,0,0,1,2.24.48c.38.5.48.52,1,.18A2,2,0,0,1,27.13.16Z"/><path class="cls-1" d="M10.85,20a12.18,12.18,0,0,1-1.41-5.54,15.59,15.59,0,0,1,.94-5.84c.38-1.07.4-1.08,1.58-1.39A1.71,1.71,0,0,1,12.19,9a14.5,14.5,0,0,0-.65,10.34,2,2,0,0,1,0,.29Zm-.13-9.65.84-.45-.42-.85-.84.45Zm.39,1.24-.62-.72-.72.63.64.7Zm-.19,1.67-.57-.54-.74.52.68.72Zm1.24-5-.37-.74L11,7.88l.34.74Zm-1.85,6.09-.66.54.53.57.68-.54ZM10,17.66l.58.42.43-.59-.59-.4Zm.21-1.85-.45.58.56.44.44-.56Zm.65,3.41.31-.55-.53-.3-.3.52Z"/><path class="cls-1" d="M34.45,14.27l-.29,1.22.22.13c.18-.2.46-.37.52-.6.33-1.33,1.39-1.78,2.55-2.27a2.15,2.15,0,0,1-.34,2,.84.84,0,0,1-.21-.1.94.94,0,0,0-1.52.65,6,6,0,0,1-.17.75A1.6,1.6,0,0,1,33,17.17a5.48,5.48,0,0,1-.94-.49c-.14-.08-.25-.19-.38-.28-.85-.53-1.43-.28-1.61.68-.69-.13-.92-.38-1-1.08a2.94,2.94,0,0,1,3.23,0,.72.72,0,0,0,.9,0c-.14-.48-.61-.55-1.1-.8Z"/><path class="cls-1" d="M34.67,6.69A2.52,2.52,0,0,1,33.56,9c-.11.08-.23.15-.35.22-.7.43-.71.79,0,1.3.31,0,.73-.31.94.21.11.26.18.54-.18.69-.75-.33-.82-.31-1,.42H32.4l-.46,0c-.34.27-.16.91-.76.84a.81.81,0,0,1,.13-1.28l.2-.13a.55.55,0,0,0,.15-.79c-.16-.31-.41-.32-.71-.21a2.49,2.49,0,0,1-2.38-.19,2.41,2.41,0,0,1,2.66-.71c.85.31,1,.23,1.24-.65A2.42,2.42,0,0,1,34.67,6.69Z"/><path class="cls-1" d="M26.73.13a1.87,1.87,0,0,0-.48,2.52l-.12.08c-.13-.06-.33-.09-.39-.2a1.85,1.85,0,0,0-1.44-1l1-.65a.87.87,0,0,0-1,.23,6,6,0,0,1-.91.62.64.64,0,0,0-.38.77,4.64,4.64,0,0,1,0,.92c0,.39-.06.79.41,1l-.11-1.1a7.49,7.49,0,0,0,1.08.44,10.12,10.12,0,0,1,1,.15A2.37,2.37,0,0,0,23.57,6,6.49,6.49,0,0,1,22,2a1.32,1.32,0,0,1,.28-.76A5.16,5.16,0,0,1,26.73.13Z"/><path class="cls-1" d="M35.88,12.06c.72-.07.73-.07.68-.68-.55-.08-1.14.41-1.69,0l-.33-1.07c.43-.35,1.07-.44,1.3-1l-.07-.17a3.78,3.78,0,0,0-.63.23c-.38.21-.72.49-1.11.69a.61.61,0,0,1-.85-.1,20.54,20.54,0,0,0,1.52-1.55,2.92,2.92,0,0,0,.49-2.11,2.53,2.53,0,0,1,.89,3.45,6.82,6.82,0,0,0-.5.74,2.75,2.75,0,0,0-.13.66L37,9.84A3.4,3.4,0,0,1,37.09,12a.9.9,0,0,1-.58.49c-.2,0-.45-.14-.68-.23Z"/><path class="cls-1" d="M17.1,23.43c-.29-.3-.6-.58-.86-.91A1.11,1.11,0,0,0,15,22.11l-.67.22,1.56,2-.39.15-.05.38c-.65.06-3.2-3.74-3.48-5.22.15.12.27.21.38.31a3.13,3.13,0,0,0,1.72.87,6.15,6.15,0,0,1,1.15.31,2.92,2.92,0,0,1,2,2.17Z"/><path class="cls-1" d="M35.73,13l-4.58,2c-.44-.79-.37-1.48.31-1.85a14.25,14.25,0,0,1,2.71-1.16C35,11.66,35.45,12,35.73,13Zm-4.23,1.12a20.06,20.06,0,0,0,3.19-1.35A6.93,6.93,0,0,0,31.51,14.08Z"/><path class="cls-1" d="M30.51,14.62c-.1.18-.17.49-.31.53a.85.85,0,0,1-.69-.14,2.83,2.83,0,0,1-.74-1.75l1.23.2c0-.33-.2-.46-.48-.48a1.1,1.1,0,0,1-1-.69,12.06,12.06,0,0,1-.76-1.91c1,.86,2.23.55,3.4.49-.46.95-1.64.62-2.17,1.36.26.24.26.24,1.25-.06l.53,1c0,.71-.87.68-1.29,1.14l.31.44.56-.26Z"/><path class="cls-1" d="M15,5.63l-.78.87-1.25-.12c1.9-1.58,5.87-1.35,7.32.48l-1.54.73-.15-1.35-1.32.69-.52-1.26-1.06,1Z"/><path class="cls-1" d="M30.34,21.3l-1.07.27L29.91,23l-.58.16-.14-1.6-1.05.22a1.47,1.47,0,0,0,.77,1.45l-.85.19-.12-1.59-1.1.26.55,1.48-.56.15L26.7,21.9l1.63-2.77,2.44,1.94-.32.35.61,1.36-.59.15Zm-1.89-1.58-1,1.73.08.11L29.87,21v-.14Z"/><path class="cls-1" d="M31.62,20.82,33,17.9l2.36,1.91c-.44.68.06,1.2.3,1.8l-.52.14L35,20.09l-1,.26.6,1.54L34.1,22,34,20.36l-1,.24a1.77,1.77,0,0,0,.65,1.54l-.74.19-.11-1.67-.9.22.51,1.55-.61.19A2.13,2.13,0,0,0,31.62,20.82Zm1.5-2.31-.78,1.74.13.08,2.23-.61Z"/><path class="cls-1" d="M18.48,9.81H17.07l.3-1.11-1.26.09V7.58L14.92,8l-.22-1-.94.43-1-.54C14.95,6.17,18.13,7.84,18.48,9.81Z"/><path class="cls-1" d="M33.67,17.69l3.67-1-1.23,2.87Z"/><path class="cls-1" d="M12.8,5.91c.77-2,4.27-3.34,5.59-2.5l-.65,1L17,3.62l-.58.87-.89-.56-.37,1-.81-.35-.16.79Z"/><path class="cls-1" d="M28.93,18.94l3.26-.88L31,20.74Z"/><path class="cls-1" d="M27.27,2.88,28.51,1.5h-.44L27.88.35A6,6,0,0,1,31,1.88a12.29,12.29,0,0,0-2,.26A11,11,0,0,0,27.34,3Z"/><path class="cls-1" d="M12.28,7.13c2,.68,3.3,2.52,3,4.16l-1.13-.51.6-.68-.88-.43.4-.81-.93-.16.19-.76-.79-.1Z"/><path class="cls-1" d="M8.57,7.59l-1-.27-.1.8-1-.24c.64-1.28,3.41-1.84,5-1.06-.61.3-.7.29-1.41-.19l-.46.62-.81-.44Z"/><path class="cls-1" d="M10.85,20l.74-.4a18.33,18.33,0,0,0,2.58,4.64A12.54,12.54,0,0,1,10.85,20Z"/><path class="cls-1" d="M33.43,6.29A1.72,1.72,0,0,1,33.61,4a3,3,0,0,1,1.22,1.52Z"/><path class="cls-1" d="M10.84,5.36l-.67.35-.5-.94-.57.72-.7-.85L8,5.5,7.3,4.61a3.16,3.16,0,0,1,3.59.7Z"/><path class="cls-1" d="M30.68,17.46l-.16-.72c.23-.38.5-.31.78-.14l1.38.89c-.7.37-1.16-.07-1.68-.41l.25.55a1.35,1.35,0,0,1-2.1-.37C29.67,17.38,30.12,17.81,30.68,17.46Z"/><path class="cls-1" d="M36.87,15.72l.62-.76c0,.9-.45,1.37-1.19,1.23l-.09-.7c-.28.46-.1,1.16-.87,1.2a10.58,10.58,0,0,1,.42-1.31.93.93,0,0,1,.55-.5c.33-.06.37.27.39.53C36.71,15.47,36.77,15.53,36.87,15.72Z"/><path class="cls-1" d="M26.13,4.94V7.87L24.46,6.61l.6-.27.26.32L26,4.91Z"/><path class="cls-1" d="M12.25,5.83c-.47-.2-.29-.58-.23-.94l-.6-.11.08-.7-.69,0-.11-.72-.65.2-.12-.82A2.93,2.93,0,0,1,12.25,5.83Z"/><path class="cls-1" d="M31.93,9.05l-1.15-.19c.08-.79.64-1.12,1.55-.89Z"/><path class="cls-1" d="M29,9l-1.5.74L27,9A2.13,2.13,0,0,1,29,9Z"/><path class="cls-1" d="M20,8.6,19,7.82l1.19-.42Z"/><path class="cls-1" d="M17.16,10.16l1.24.09-.55,1.14Z"/><path class="cls-1" d="M17.68,25.75l-.37,0v.48l-.15.06-.47-.84.1-.15.93.24Z"/><path class="cls-1" d="M29.6,18.25l-1,.28.22-1Z"/><path class="cls-1" d="M10.89,5.31l1,.93-.08.11-.69-.24-.3-.75Z"/><path class="cls-1" d="M18.63,3.74l.39.76-1-.06Z"/><path class="cls-1" d="M16.69,25l-.39.11.07.52-.14.06-.42-.84.1-.14.78.15Z"/><path class="cls-1" d="M6.59,9,6.47,8.2l.87.13Z"/><path class="cls-1" d="M6.88,5.82,7.11,5l.66.62Z"/><path class="cls-1" d="M18.28,6.67l0,.74-.74-.27Z"/><path class="cls-1" d="M14.22,11.05l.68.41-.68.51Z"/><path class="cls-1" d="M28.17,21.11l.34-.78.65.54Z"/><path class="cls-1" d="M33.23,19.08l.68.54-.92.26Z"/></g></g></g></svg>