<svg xmlns="http://www.w3.org/2000/svg" viewBox="0 0 28.93 28.93"><defs><style>.cls-1{fill:#855e00;}</style></defs><title>main-cart</title><g id="圖層_2" data-name="圖層 2"><g id="圖層_1-2" data-name="圖層 1"><path class="cls-1" d="M14.47,28.93A14.47,14.47,0,1,1,28.93,14.47,14.48,14.48,0,0,1,14.47,28.93Zm0-28A13.53,13.53,0,1,0,28,14.47,13.55,13.55,0,0,0,14.47.93Z"/><path class="cls-1" d="M19.84,17.95H11.25a.5.5,0,0,1-.48-.38L9.1,11a.5.5,0,0,1,.48-.62H21.74a.5.5,0,0,1,.48.64l-1.91,6.56A.5.5,0,0,1,19.84,17.95Zm-8.2-1h7.82l1.62-5.56H10.23Z"/><path class="cls-1" d="M11.25,17.95a.5.5,0,0,1-.48-.38L8.48,8.65H6.81a.5.5,0,0,1,0-1H8.87A.5.5,0,0,1,9.35,8l2.38,9.3a.5.5,0,0,1-.36.61Z"/><path class="cls-1" d="M12,21.21a1.1,1.1,0,1,1,1.1-1.1A1.11,1.11,0,0,1,12,21.21Zm0-1.88a.78.78,0,1,0,.78.78A.78.78,0,0,0,12,19.33Z"/><path class="cls-1" d="M19,21.21a1.1,1.1,0,1,1,1.1-1.1A1.11,1.11,0,0,1,19,21.21Zm0-1.88a.78.78,0,1,0,.78.78A.78.78,0,0,0,19,19.33Z"/></g></g></svg>