<?xml version="1.0" encoding="utf-8"?>
<!-- Generator: Adobe Illustrator 21.1.0, SVG Export Plug-In . SVG Version: 6.00 Build 0)  -->
<svg version="1.1" id="圖層_1" xmlns="http://www.w3.org/2000/svg" xmlns:xlink="http://www.w3.org/1999/xlink" x="0px" y="0px"
	 viewBox="0 0 28.9 28.9" style="enable-background:new 0 0 28.9 28.9;" xml:space="preserve">
<style type="text/css">
	.st0{fill:#20C9CA;}
</style>
<title>main-cart</title>
<g id="圖層_2">
	<g id="圖層_1-2">
		<path class="st0" d="M14.5,28.9C6.5,28.9,0,22.5,0,14.5S6.5,0,14.5,0s14.5,6.5,14.5,14.5c0,0,0,0,0,0
			C28.9,22.5,22.5,28.9,14.5,28.9z M14.5,0.9C7,0.9,0.9,7,0.9,14.5S7,28,14.5,28C21.9,28,28,21.9,28,14.5C28,7,21.9,0.9,14.5,0.9z"
			/>
		<path class="st0" d="M19.8,18h-8.6c-0.2,0-0.4-0.2-0.5-0.4L9.1,11c-0.1-0.3,0.1-0.5,0.4-0.6c0,0,0.1,0,0.1,0h12.2
			c0.3,0,0.5,0.2,0.5,0.5c0,0,0,0.1,0,0.1l-1.9,6.6C20.3,17.8,20.1,17.9,19.8,18z M11.6,17h7.8l1.6-5.6H10.2L11.6,17z"/>
		<path class="st0" d="M11.2,18c-0.2,0-0.4-0.2-0.5-0.4L8.5,8.6H6.8c-0.3,0-0.5-0.2-0.5-0.5c0-0.3,0.2-0.5,0.5-0.5h2.1
			c0.2,0,0.4,0.1,0.5,0.4l2.4,9.3c0.1,0.3-0.1,0.5-0.4,0.6c0,0,0,0,0,0L11.2,18z"/>
		<path class="st0" d="M12,21.2c-0.6,0-1.1-0.5-1.1-1.1S11.4,19,12,19c0.6,0,1.1,0.5,1.1,1.1C13.1,20.7,12.6,21.2,12,21.2z M12,19.3
			c-0.4,0-0.8,0.3-0.8,0.8c0,0.4,0.3,0.8,0.8,0.8c0.4,0,0.8-0.3,0.8-0.8S12.4,19.3,12,19.3C12,19.3,12,19.3,12,19.3z"/>
		<path class="st0" d="M19,21.2c-0.6,0-1.1-0.5-1.1-1.1S18.4,19,19,19s1.1,0.5,1.1,1.1C20.1,20.7,19.6,21.2,19,21.2z M19,19.3
			c-0.4,0-0.8,0.3-0.8,0.8s0.3,0.8,0.8,0.8c0.4,0,0.8-0.3,0.8-0.8S19.4,19.3,19,19.3L19,19.3z"/>
	</g>
</g>
</svg>
