<svg xmlns="http://www.w3.org/2000/svg" viewBox="0 0 28.93 28.93"><defs><style>.cls-1{fill:#855e00;}.cls-2{fill:none;stroke:#855e00;stroke-linecap:round;stroke-miterlimit:10;stroke-width:0.83px;}</style></defs><title>member</title><g id="圖層_2" data-name="圖層 2"><g id="圖層_1-2" data-name="圖層 1"><path class="cls-1" d="M14.47,28.93A14.47,14.47,0,1,1,28.93,14.47,14.48,14.48,0,0,1,14.47,28.93Zm0-28A13.53,13.53,0,1,0,28,14.47,13.55,13.55,0,0,0,14.47.93Z"/><path class="cls-1" d="M12.74,7.47C9.64,9,10.38,15,14.22,15.28s.78-3.31.87-4.62S15.81,5.91,12.74,7.47Z"/><path class="cls-1" d="M16.94,8.06c.56.3,2.35,2.84,1.22,4.67-1.35,2.18-2.35-.91-2.35-1.82S14.81,6.91,16.94,8.06Z"/><path class="cls-2" d="M6.39,22.56a9.12,9.12,0,0,1,16.46.19"/></g></g></svg>