<?xml version="1.0" encoding="utf-8"?>
<!-- Generator: Adobe Illustrator 21.1.0, SVG Export Plug-In . SVG Version: 6.00 Build 0)  -->
<svg version="1.1" id="圖層_1" xmlns="http://www.w3.org/2000/svg" xmlns:xlink="http://www.w3.org/1999/xlink" x="0px" y="0px"
	 viewBox="0 0 28.9 28.9" style="enable-background:new 0 0 28.9 28.9;" xml:space="preserve">
<style type="text/css">
	.st0{fill:#FFD732;}
	.st1{fill:none;stroke:#FFD732;stroke-width:0.83;stroke-linecap:round;stroke-miterlimit:10;}
</style>
<title>member</title>
<g id="圖層_2">
	<g id="圖層_1-2">
		<path class="st0" d="M14.5,28.9C6.5,28.9,0,22.5,0,14.5S6.5,0,14.5,0s14.5,6.5,14.5,14.5c0,0,0,0,0,0
			C28.9,22.5,22.5,28.9,14.5,28.9z M14.5,0.9C7,0.9,0.9,7,0.9,14.5S7,28,14.5,28C21.9,28,28,21.9,28,14.5C28,7,21.9,0.9,14.5,0.9z"
			/>
		<path class="st0" d="M12.7,7.5C9.6,9,10.4,15,14.2,15.3s0.8-3.3,0.9-4.6S15.8,5.9,12.7,7.5z"/>
		<path class="st0" d="M16.9,8.1c0.6,0.3,2.4,2.8,1.2,4.7c-1.4,2.2-2.4-0.9-2.4-1.8S14.8,6.9,16.9,8.1z"/>
		<path class="st1" d="M6.4,22.6c2.2-4.5,7.7-6.4,12.2-4.2c1.9,0.9,3.4,2.5,4.3,4.4"/>
	</g>
</g>
</svg>
