<svg xmlns="http://www.w3.org/2000/svg" viewBox="0 0 28.93 28.93"><defs><style>.cls-1{fill:#82beff;}</style></defs><title>moreChoose</title><g id="圖層_2" data-name="圖層 2"><g id="圖層_1-2" data-name="圖層 1"><path class="cls-1" d="M14.47,28.93A14.47,14.47,0,1,1,28.93,14.47,14.48,14.48,0,0,1,14.47,28.93Zm0-28A13.53,13.53,0,1,0,28,14.47,13.55,13.55,0,0,0,14.47.93Z"/><path class="cls-1" d="M13.73,8.09C9.85,9.5,8.28,17.25,12.37,19.54s2.12-4.18,2.73-5.93S17.07,6.87,13.73,8.09Z"/><path class="cls-1" d="M18.13,10.92c.59.55,1.36,4.85-.45,7s-1.9-2.9-1.29-4S16.84,9.71,18.13,10.92Z"/></g></g></svg>