<?xml version="1.0" encoding="utf-8"?>
<!-- Generator: Adobe Illustrator 21.1.0, SVG Export Plug-In . SVG Version: 6.00 Build 0)  -->
<svg version="1.1" id="圖層_1" xmlns="http://www.w3.org/2000/svg" xmlns:xlink="http://www.w3.org/1999/xlink" x="0px" y="0px"
	 viewBox="0 0 30 30" style="enable-background:new 0 0 30 30;" xml:space="preserve">
<style type="text/css">
	.st0{fill:#FFD732;}
</style>
<title>password</title>
<g id="圖層_2">
	<g id="圖層_1-2">
		<path class="st0" d="M15,30C6.7,30,0,23.3,0,15S6.7,0,15,0s15,6.7,15,15S23.3,30,15,30z M15,1C7.3,1,1,7.3,1,15s6.3,14,14,14
			s14-6.3,14-14S22.7,1,15,1z"/>
		<path class="st0" d="M19.8,12.9h-1.5v-1.2c0-2.4-1.1-3.8-3.3-3.8s-3.3,1.4-3.3,3.8v1.2H10c-0.5,0.1-0.8,0.5-0.8,1v6.5
			c0,0.5,0.4,0.9,0.8,1.1l1,0.3c0.5,0.2,1.1,0.2,1.6,0.3h4.8c0.5,0,1-0.1,1.5-0.2l1-0.3c0.5-0.2,0.8-0.6,0.8-1.1v-6.5
			C20.7,13.4,20.3,13,19.8,12.9z M13.3,11.4c-0.1-0.9,0.5-1.7,1.4-1.8c0.1,0,0.2,0,0.3,0c0.9,0,1.6,0.6,1.7,1.5c0,0.1,0,0.2,0,0.3
			v1.5h-3.3V11.4z"/>
	</g>
</g>
</svg>
