<svg xmlns="http://www.w3.org/2000/svg" viewBox="0 0 30 30"><defs><style>.cls-1{fill:#855e00;}</style></defs><title>password</title><g id="圖層_2" data-name="圖層 2"><g id="圖層_1-2" data-name="圖層 1"><path class="cls-1" d="M15,30A15,15,0,1,1,30,15,15,15,0,0,1,15,30ZM15,1A14,14,0,1,0,29,15,14,14,0,0,0,15,1Z"/><path class="cls-1" d="M19.84,12.91h-1.5V11.75c0-2.42-1.11-3.84-3.34-3.84s-3.34,1.42-3.34,3.84v1.17H10a1,1,0,0,0-.83,1v6.51A1.22,1.22,0,0,0,10,21.51l1,.32a6.37,6.37,0,0,0,1.63.26h4.84A6.37,6.37,0,0,0,19,21.84l1-.32a1.22,1.22,0,0,0,.79-1.09V13.92A1.15,1.15,0,0,0,19.84,12.91Zm-6.51-1.5A1.61,1.61,0,0,1,15,9.58a1.61,1.61,0,0,1,1.67,1.84v1.5H13.33Z"/></g></g></svg>