<?xml version="1.0" encoding="utf-8"?>
<!-- Generator: Adobe Illustrator 21.1.0, SVG Export Plug-In . SVG Version: 6.00 Build 0)  -->
<svg version="1.1" id="圖層_1" xmlns="http://www.w3.org/2000/svg" xmlns:xlink="http://www.w3.org/1999/xlink" x="0px" y="0px"
	 viewBox="0 0 49 49" style="enable-background:new 0 0 49 49;" xml:space="preserve">

<title>pay</title>
<g id="圖層_2">
	<g id="圖層_1-2">
		<path class="st0" d="M34.8,16.5c-0.4-0.3-2.4-1.8-2.8-2.2c-0.4-0.3-0.9-0.4-1.4-0.4H18.4c-0.5,0-1,0.1-1.4,0.4
			c-0.4,0.3-2.4,1.8-2.8,2.2c-0.5,0.4-0.7,0.9-0.6,1.5c0.1,0.7,2.5,16.5,2.5,16.5c0.2,0.4,0.6,0.7,1,0.7h14.9c0.4,0,0.8-0.3,1-0.7
			c0,0,2.4-15.8,2.5-16.5C35.5,17.4,35.3,16.8,34.8,16.5z M24.5,27.5c-4.1,0-5-5.8-5.2-7h2.3c0.3,1.8,1.1,4.8,2.9,4.8s2.5-3,2.9-4.8
			h2.3C29.6,21.7,28.6,27.5,24.5,27.5L24.5,27.5z M15.6,18.2l2.8-2.9h12.3l2.8,2.9H15.6z"/>
		<path class="st0" d="M24.5,47C12.1,47,2,36.9,2,24.5S12.1,2,24.5,2S47,12.1,47,24.5C47,36.9,36.9,47,24.5,47z M24.5,2.9
			c-11.9,0-21.6,9.7-21.6,21.6s9.7,21.6,21.6,21.6s21.6-9.7,21.6-21.6C46.1,12.6,36.4,2.9,24.5,2.9z"/>
	</g>
</g>
</svg>
