<svg xmlns="http://www.w3.org/2000/svg" viewBox="0 0 49 49"><defs><style>.cls-1{fill:#855e00;}</style></defs><title>pay</title><g id="圖層_2" data-name="圖層 2"><g id="圖層_1-2" data-name="圖層 1"><path class="cls-1" d="M35.73,15.75c-.41-.35-2.64-2-3.05-2.4a2.44,2.44,0,0,0-1.52-.46H17.85a2.44,2.44,0,0,0-1.52.46c-.42.36-2.64,2-3.05,2.4a1.76,1.76,0,0,0-.64,1.65c.11.76,2.68,17.93,2.68,17.93a1.23,1.23,0,0,0,1.09.79H32.6a1.23,1.23,0,0,0,1.09-.79s2.57-17.17,2.68-17.93A1.76,1.76,0,0,0,35.73,15.75Zm-11.23,12c-4.49,0-5.45-6.35-5.65-7.66h2.54c.38,1.91,1.25,5.18,3.11,5.18s2.73-3.27,3.11-5.18h2.54C30,21.42,29,27.77,24.5,27.77ZM14.77,17.59l3-3.18H31.18l3,3.18Z"/><path class="cls-1" d="M24.5,49A24.5,24.5,0,1,1,49,24.5,24.53,24.53,0,0,1,24.5,49Zm0-48A23.5,23.5,0,1,0,48,24.5,23.53,23.53,0,0,0,24.5,1Z"/></g></g></svg>