<?xml version="1.0" encoding="utf-8"?>
<!-- Generator: Adobe Illustrator 21.1.0, SVG Export Plug-In . SVG Version: 6.00 Build 0)  -->
<svg version="1.1" id="圖層_1" xmlns="http://www.w3.org/2000/svg" xmlns:xlink="http://www.w3.org/1999/xlink" x="0px" y="0px"
	 viewBox="0 0 49 49" style="enable-background:new 0 0 49 49;" xml:space="preserve">

<title>pay_2</title>
<g id="圖層_2">
	<g id="圖層_1-2">
		<path class="st0" d="M33.4,15.6h-1.1v2.5h-4.1v-2.5h-7.3v2.5h-4.1v-2.5h-1.1c-1.4,0-2.5,1.1-2.5,2.5v15.2c0,1.4,1.1,2.5,2.5,2.5
			h17.8c1.4,0,2.5-1.1,2.5-2.5V18.2C35.9,16.8,34.8,15.6,33.4,15.6z M33.4,33.4H15.6V23.2h17.8V33.4z M19.7,13.1h-1.8v4.3h1.8V13.1z
			 M31.1,13.1h-1.8v4.3h1.8L31.1,13.1z"/>
		<path class="st0" d="M24.5,47C12.1,47,2,36.9,2,24.5S12.1,2,24.5,2S47,12.1,47,24.5C47,36.9,36.9,47,24.5,47z M24.5,2.9
			c-11.9,0-21.6,9.7-21.6,21.6s9.7,21.6,21.6,21.6s21.6-9.7,21.6-21.6C46.1,12.6,36.4,2.9,24.5,2.9z"/>
	</g>
</g>
</svg>
