<svg xmlns="http://www.w3.org/2000/svg" viewBox="0 0 49 49"><defs><style>.cls-1{fill:#fff;}</style></defs><title>pay_2</title><g id="圖層_2" data-name="圖層 2"><g id="圖層_1-2" data-name="圖層 1"><path class="cls-1" d="M34.18,14.82H32.93v2.76H28.51V14.82h-8v2.76H16.07V14.82H14.82a2.77,2.77,0,0,0-2.76,2.76V34.18a2.77,2.77,0,0,0,2.76,2.76H34.18a2.77,2.77,0,0,0,2.76-2.76V17.59A2.77,2.77,0,0,0,34.18,14.82Zm0,19.35H14.82V23.12H34.18ZM19.25,12.06H17.31v4.7h1.94Zm12.44,0H29.75v4.7h1.94Z"/><path class="cls-1" d="M24.5,49A24.5,24.5,0,1,1,49,24.5,24.53,24.53,0,0,1,24.5,49Zm0-48A23.5,23.5,0,1,0,48,24.5,23.53,23.53,0,0,0,24.5,1Z"/></g></g></svg>