<svg xmlns="http://www.w3.org/2000/svg" viewBox="0 0 49 49"><defs><style>.cls-1{fill:#855e00;}</style></defs><title>pay_1</title><g id="圖層_2" data-name="圖層 2"><g id="圖層_1-2" data-name="圖層 1"><path class="cls-1" d="M35.56,14.82H13.44a2.77,2.77,0,0,0-2.76,2.76V31.41a2.77,2.77,0,0,0,2.76,2.76H35.56a2.77,2.77,0,0,0,2.76-2.76V17.59A2.77,2.77,0,0,0,35.56,14.82Zm0,16.59H13.44V23.12H35.56Zm0-12.44H13.44V17.59H35.56ZM16.21,26v.83H17V26Zm5,1.66v.83h1.66v-.83h.83v-.83h.83V26H22.84v.83H22v.83Zm3.32.83v-.83h-.83v.83Zm-4.15,0v-.83H18.69v.83Zm.83-1.66H22V26H20.35v1.66h.83Zm-3.32.83h.83v-.83h.83V26H17.86v.83H17v.83h-.83v.83h1.66Z"/><path class="cls-1" d="M24.5,49A24.5,24.5,0,1,1,49,24.5,24.53,24.53,0,0,1,24.5,49Zm0-48A23.5,23.5,0,1,0,48,24.5,23.53,23.53,0,0,0,24.5,1Z"/></g></g></svg>