<?xml version="1.0" encoding="utf-8"?>
<!-- Generator: Adobe Illustrator 21.1.0, SVG Export Plug-In . SVG Version: 6.00 Build 0)  -->
<svg version="1.1" id="圖層_1" xmlns="http://www.w3.org/2000/svg" xmlns:xlink="http://www.w3.org/1999/xlink" x="0px" y="0px"
	 viewBox="0 0 49 49" style="enable-background:new 0 0 49 49;" xml:space="preserve">

<title>pay_1</title>
<g id="圖層_2">
	<g id="圖層_1-2">
		<path class="st0" d="M34.7,15.6H14.3c-1.4,0-2.5,1.1-2.5,2.5v12.7c0,1.4,1.1,2.5,2.5,2.5h20.3c1.4,0,2.5-1.1,2.5-2.5V18.2
			C37.2,16.8,36.1,15.6,34.7,15.6z M34.7,30.8H14.3v-7.6h20.3V30.8z M34.7,19.4H14.3v-1.3h20.3V19.4z M16.9,25.9v0.8h0.7v-0.8H16.9z
			 M21.5,27.4v0.8H23v-0.8h0.8v-0.8h0.8v-0.8H23v0.8h-0.8v0.8H21.5z M24.5,28.2v-0.8h-0.8v0.8H24.5z M20.7,28.2v-0.8h-1.6v0.8H20.7z
			 M21.5,26.6h0.7v-0.8h-1.5v1.5h0.8L21.5,26.6z M18.4,27.4h0.8v-0.8H20v-0.8h-1.6v0.8h-0.8v0.8h-0.8v0.8h1.5L18.4,27.4z"/>
		<path class="st0" d="M24.5,47C12.1,47,2,36.9,2,24.5S12.1,2,24.5,2S47,12.1,47,24.5C47,36.9,36.9,47,24.5,47z M24.5,2.9
			c-11.9,0-21.6,9.7-21.6,21.6s9.7,21.6,21.6,21.6s21.6-9.7,21.6-21.6C46.1,12.6,36.4,2.9,24.5,2.9z"/>
	</g>
</g>
</svg>
