<svg xmlns="http://www.w3.org/2000/svg" viewBox="0 0 28.93 28.93"><defs><style>.cls-1{fill:#855e00;}</style></defs><title>phone</title><g id="圖層_2" data-name="圖層 2"><g id="圖層_1-2" data-name="圖層 1"><path class="cls-1" d="M14.47,28.93A14.47,14.47,0,1,1,28.93,14.47,14.48,14.48,0,0,1,14.47,28.93Zm0-28A13.53,13.53,0,1,0,28,14.47,13.55,13.55,0,0,0,14.47.93Z"/><path class="cls-1" d="M17.47,6.73h-6A1.58,1.58,0,0,0,9.89,8.31V20.62a1.58,1.58,0,0,0,1.58,1.58h6A1.58,1.58,0,0,0,19,20.62V8.31A1.58,1.58,0,0,0,17.47,6.73Zm-3,14.84c-.61,0-1.11-.35-1.11-.79s.5-.79,1.11-.79,1.11.35,1.11.79S15.08,21.57,14.47,21.57Zm3.32-2.37H11.15V8.78h6.63Z"/></g></g></svg>