<?xml version="1.0" encoding="utf-8"?>
<!-- Generator: Adobe Illustrator 21.1.0, SVG Export Plug-In . SVG Version: 6.00 Build 0)  -->
<svg version="1.1" id="圖層_1" xmlns="http://www.w3.org/2000/svg" xmlns:xlink="http://www.w3.org/1999/xlink" x="0px" y="0px"
	 viewBox="0 0 28.9 28.9" style="enable-background:new 0 0 28.9 28.9;" xml:space="preserve">
<style type="text/css">
	.st0{fill:#FFD732;}
</style>
<title>phone</title>
<g id="圖層_2">
	<g id="圖層_1-2">
		<path class="st0" d="M14.5,28.9C6.5,28.9,0,22.5,0,14.5S6.5,0,14.5,0s14.5,6.5,14.5,14.5c0,0,0,0,0,0
			C28.9,22.5,22.5,28.9,14.5,28.9z M14.5,0.9C7,0.9,0.9,7,0.9,14.5S7,28,14.5,28C21.9,28,28,21.9,28,14.5C28,7,21.9,0.9,14.5,0.9z"
			/>
		<path class="st0" d="M17.5,6.7h-6c-0.9,0-1.6,0.7-1.6,1.6v12.3c0,0.9,0.7,1.6,1.6,1.6h6c0.9,0,1.5-0.7,1.5-1.6V8.3
			C19,7.5,18.3,6.8,17.5,6.7z M14.5,21.6c-0.6,0-1.1-0.4-1.1-0.8s0.5-0.8,1.1-0.8s1.1,0.4,1.1,0.8S15.1,21.6,14.5,21.6z M17.8,19.2
			h-6.6V8.8h6.6L17.8,19.2z"/>
	</g>
</g>
</svg>
