<svg xmlns="http://www.w3.org/2000/svg" viewBox="0 0 16.58 23.89"><defs><style>.cls-1,.cls-2{fill:#fff;}.cls-1{fill-rule:evenodd;}.cls-3,.cls-4{fill:none;stroke:#fff;stroke-miterlimit:10;}.cls-3{stroke-width:0.52px;}.cls-4{stroke-width:0.78px;}</style></defs><title>sgs</title><g id="圖層_2" data-name="圖層 2"><g id="圖層_1-2" data-name="圖層 1"><path class="cls-1" d="M15,21.05a10.46,10.46,0,0,0,1.58-5.45,9.44,9.44,0,0,0-.3-2.44,1.26,1.26,0,0,0-1.18-1,1.18,1.18,0,0,0-.89.4v-.1a1.18,1.18,0,0,0-2.36,0V11.9a1.18,1.18,0,1,0-2.36,0V8.07a1.18,1.18,0,1,0-2.36,0V14.8a.59.59,0,0,1-.59.59l-.16,0-1.67-.68a1.18,1.18,0,1,0-1,2.15,9.87,9.87,0,0,1,4.52,4.22Z"/><rect class="cls-2" x="8.22" y="21.8" width="6.77" height="2.09"/><circle class="cls-3" cx="8.22" cy="8.22" r="3.13"/><circle class="cls-4" cx="8.22" cy="8.22" r="7.83"/></g></g></svg>