<?xml version="1.0" encoding="utf-8"?>
<!-- Generator: Adobe Illustrator 21.1.0, SVG Export Plug-In . SVG Version: 6.00 Build 0)  -->
<svg version="1.1" id="圖層_1" xmlns="http://www.w3.org/2000/svg" xmlns:xlink="http://www.w3.org/1999/xlink" x="0px" y="0px"
	 viewBox="0 0 28.9 28.9" style="enable-background:new 0 0 28.9 28.9;" xml:space="preserve">
<style type="text/css">
	.st0{fill:#FFD732;}
</style>
<title>unlock</title>
<g id="圖層_2">
	<g id="圖層_1-2">
		<path class="st0" d="M14.5,28.9C6.5,28.9,0,22.5,0,14.5S6.5,0,14.5,0s14.5,6.5,14.5,14.5c0,0,0,0,0,0
			C28.9,22.5,22.5,28.9,14.5,28.9z M14.5,0.9C7,0.9,0.9,7,0.9,14.5S7,28,14.5,28C21.9,28,28,21.9,28,14.5C28,7,21.9,0.9,14.5,0.9z"
			/>
		<path class="st0" d="M19.1,12.9h-1.4v-1.9c0-2.3-1.1-3.7-3.2-3.7s-3.2,1.4-3.2,3.7v0.3h1.6v-0.6c-0.1-0.8,0.5-1.6,1.3-1.8
			c0.1,0,0.2,0,0.3,0c0.9,0,1.6,0.6,1.6,1.5c0,0.1,0,0.2,0,0.3v2.2H9.6c-0.5,0.1-0.8,0.5-0.8,1v6.2c0,0.5,0.3,0.9,0.8,1l1,0.3
			c0.5,0.2,1,0.2,1.6,0.2h4.6c0.5,0,1.1-0.1,1.6-0.2l1-0.3c0.4-0.2,0.7-0.6,0.8-1v-6.3C20.1,13.3,19.7,12.9,19.1,12.9z"/>
	</g>
</g>
</svg>
