<svg xmlns="http://www.w3.org/2000/svg" viewBox="0 0 28.93 28.93"><defs><style>.cls-1{fill:#855e00;}</style></defs><title>unlock</title><g id="圖層_2" data-name="圖層 2"><g id="圖層_1-2" data-name="圖層 1"><path class="cls-1" d="M14.47,28.93A14.47,14.47,0,1,1,28.93,14.47,14.48,14.48,0,0,1,14.47,28.93Zm0-28A13.53,13.53,0,1,0,28,14.47,13.55,13.55,0,0,0,14.47.93Z"/><path class="cls-1" d="M19.13,12.86H17.69V10.93c0-2.33-1.07-3.7-3.22-3.7s-3.22,1.37-3.22,3.7v.32h1.61V10.6a1.55,1.55,0,0,1,1.61-1.77,1.55,1.55,0,0,1,1.61,1.77v2.25H9.64a1,1,0,0,0-.8,1V20.1a1.18,1.18,0,0,0,.77,1.05l1,.31a6.15,6.15,0,0,0,1.57.25H16.8a6.15,6.15,0,0,0,1.57-.25l1-.31a1.18,1.18,0,0,0,.77-1.05V13.82A1.11,1.11,0,0,0,19.13,12.86Z"/></g></g></svg>