<svg xmlns="http://www.w3.org/2000/svg" viewBox="0 0 60.78 71.72"><defs><style>.cls-1{fill:#fff;}</style></defs><title>way1</title><g id="圖層_2" data-name="圖層 2"><g id="圖層_1-2" data-name="圖層 1"><path class="cls-1" d="M51.5,16.61l-6.07-.2-11-6.15V5.67a5.67,5.67,0,1,0-11.35,0V9.8L11.3,16.41l-10.5.2A.81.81,0,0,0,.3,18.06L8.23,24.4l6.35,16.67v7L6.53,70.64a.81.81,0,0,0,.76,1.08H49.43a.81.81,0,0,0,.76-1.08L42.14,48.08V41l4.67-17.13h2.94a2.92,2.92,0,0,1,2.92,2.92v5.5a2.92,2.92,0,0,1-2.92,2.92H45.38a.81.81,0,0,0-.81.81v5.67a.81.81,0,0,0,.81.81h6.09a9.32,9.32,0,0,0,9.31-9.31V25.92A9.31,9.31,0,0,0,51.5,16.61ZM24.3,11a.81.81,0,0,0,.41-.71V5.67a4.05,4.05,0,0,1,8.1,0v5.07a.81.81,0,0,0,.41.71l8.87,5H14.62ZM40.52,47.41H16.21V41.73H40.52ZM32.61,49l6,21.07H18.9l6-21.07Zm-8.5-8.91L18,18H38.7L32.61,40.11ZM9.42,23.27,3.07,18.19,11.53,18l.13,0,.09,0h4.59l6.09,22.08H16L9.67,23.62A.82.82,0,0,0,9.42,23.27ZM16,49h7.27l-6,21.07H8.44ZM40.32,70.1,34.3,49h6.46L48.28,70.1ZM59.16,33.24a7.69,7.69,0,0,1-7.69,7.69H46.19V36.87h3.56a4.55,4.55,0,0,0,4.54-4.54v-5.5a4.55,4.55,0,0,0-4.54-4.54H46.19a.81.81,0,0,0-.78.6l-4.7,17.23H34.29L40.38,18H45l.09,0,.12,0,6.29.2a7.69,7.69,0,0,1,7.69,7.69Z"/></g></g></svg>