<svg xmlns="http://www.w3.org/2000/svg" viewBox="0 0 68.07 70.5"><defs><style>.cls-1{fill:#fff;}</style></defs><title>way2</title><g id="圖層_2" data-name="圖層 2"><g id="圖層_1-2" data-name="圖層 1"><polygon class="cls-1" points="34.85 51.05 42.14 51.05 42.14 53.49 24.31 53.49 24.31 51.05 31.61 51.05 31.61 34.85 19.45 34.85 19.45 62.4 46.19 62.4 46.19 34.85 34.85 34.85 34.85 51.05"/><path class="cls-1" d="M59.32,25.66H53.49v-3A9.74,9.74,0,0,0,43.76,13H37.28V11.54a6.48,6.48,0,1,0-8.1,0V13H22.69A9.73,9.73,0,0,0,13,21.88H.81a.81.81,0,0,0-.55,1.4L13,35.2v34.5a.81.81,0,0,0,.81.81h38.9a.81.81,0,0,0,.81-.81V49.43h5.83a8.77,8.77,0,0,0,8.76-8.76V34.42A8.77,8.77,0,0,0,59.32,25.66ZM22.69,14.59H30a.81.81,0,0,0,.81-.81V11.13a.81.81,0,0,0-.35-.66,4.86,4.86,0,1,1,5.56,0,.81.81,0,0,0-.35.66v2.64a.81.81,0,0,0,.81.81h7.29a8.12,8.12,0,0,1,8.06,7.29H14.63A8.12,8.12,0,0,1,22.69,14.59Zm29.17,54.3H14.59v-34a.81.81,0,0,0-.26-.59L2.86,23.5h49ZM66.45,40.68a7.14,7.14,0,0,1-7.14,7.14H53.49V27.28h5.83a7.14,7.14,0,0,1,7.14,7.14Z"/></g></g></svg>