<svg xmlns="http://www.w3.org/2000/svg" viewBox="0 0 51.96 63.5"><defs><style>.cls-1{fill:#fff;}</style></defs><title>way3</title><g id="圖層_2" data-name="圖層 2"><g id="圖層_1-2" data-name="圖層 1"><path class="cls-1" d="M35.83,25.76H29.68V22.4a.56.56,0,0,0-.56-.56H.57A.56.56,0,0,0,0,22.4a9,9,0,0,0,6.08,8.47.53.53,0,0,0-.15.09,17.88,17.88,0,0,0,.67,27.11.52.52,0,0,0,.33.12h22a.52.52,0,0,0,.33-.12A17.82,17.82,0,0,0,35.59,47a.55.55,0,0,0,.25.06,6.72,6.72,0,0,0,6.72-6.72V32.48A6.72,6.72,0,0,0,35.83,25.76ZM35.28,40a17.92,17.92,0,0,0-5-8.6h1.56a3.41,3.41,0,0,1,3.4,3.4ZM28.71,57.14H7.13a16.82,16.82,0,0,1-.64-25.26H29.35a16.82,16.82,0,0,1-.64,25.26ZM41.43,40.32a5.61,5.61,0,0,1-5,5.57V34.76a4.53,4.53,0,0,0-4.52-4.52H9A7.85,7.85,0,0,1,1.15,23H28.56v3.36a.56.56,0,0,0,.56.56h6.72a5.6,5.6,0,0,1,5.6,5.6Z"/><path class="cls-1" d="M7.85,53.19H27.44c4.48-2.8,3.92-8.4,3.92-8.4H4.49A11.24,11.24,0,0,0,7.85,53.19Z"/><path class="cls-1" d="M0,0V16H44.9V60.29h-43V63.5H52V0ZM10.26,10.9a2.57,2.57,0,1,1,2.57-2.57A2.57,2.57,0,0,1,10.26,10.9Z"/></g></g></svg>