<svg xmlns="http://www.w3.org/2000/svg" viewBox="0 0 53.57 63.59"><defs><style>.cls-1{fill:#fff;}</style></defs><title>way4</title><g id="圖層_2" data-name="圖層 2"><g id="圖層_1-2" data-name="圖層 1"><path class="cls-1" d="M4.24,25.05c0,.16,0,.37,3,8.83L1.15,56.95a5.29,5.29,0,0,0,5.11,6.64h33a5.29,5.29,0,0,0,5.11-6.64L42.4,49.72h1.41a7.45,7.45,0,0,0,7.45-7.45V40.2a7.45,7.45,0,0,0-7.45-7.45H38.58l2.61-7.45a.77.77,0,1,0-1.45-.51s-3.13,8.5-3.13,8.73a.73.73,0,0,0,0,.14.77.77,0,0,0,0,.38l6.2,23.29A3.74,3.74,0,0,1,39.22,62h-33a3.74,3.74,0,0,1-3.62-4.71L8.84,34a.77.77,0,0,0,0-.46c-1.11-3.08-2.9-8.11-3-8.66a.77.77,0,0,0-1.53.13ZM49.72,40.2v2.07a5.91,5.91,0,0,1-5.9,5.9H42L38.3,34.3h5.51A5.91,5.91,0,0,1,49.72,40.2Z"/><path class="cls-1" d="M46.13,2.45H45L45.44,1a.77.77,0,0,0-.74-1H.77A.77.77,0,0,0,0,1l6.1,19.42H.39l3.08,3.85H7.35L8.51,28a.77.77,0,0,0,.74.54h27A.77.77,0,0,0,37,28l1.16-3.7H42l3.08-3.85H39.34l1-3.08h5.82a7.45,7.45,0,0,0,0-14.89ZM35.66,27H9.82L9,24.28H36.51ZM7.76,20.43,1.82,1.54H43.66L37.72,20.43ZM46.13,15.8H40.79L44.5,4h1.62a5.9,5.9,0,0,1,0,11.81Z"/></g></g></svg>