<svg xmlns="http://www.w3.org/2000/svg" viewBox="0 0 33.28 68.6"><defs><style>.cls-1{fill:#fff;}</style></defs><title>way5</title><g id="圖層_2" data-name="圖層 2"><g id="圖層_1-2" data-name="圖層 1"><path class="cls-1" d="M31.79,40.67V38.86a4.43,4.43,0,0,0-4.42-4.42H25.85V30.87H24.07v2.67H19.61v-3A.59.59,0,0,0,19,30h-.89V28.2h3.73a4.59,4.59,0,0,0,4.58-4.58V.59A.59.59,0,0,0,25.85,0H2.08a.59.59,0,0,0-.59.59l-.26,23A4.58,4.58,0,0,0,5.81,28.2H9.51V30H7.72a.59.59,0,0,0-.59.59V37a13.67,13.67,0,1,0,12.48-.31v-.77h4.46v3.27h1.78V35.62h1.52a3.24,3.24,0,0,1,3.23,3.23v1.82H28.52v25H5.94v3H33.28V40.67ZM18.42,31.17v2.38h-.3V31.17ZM11.57,54.06V36.7a12.46,12.46,0,0,1,2.1-.19,12.46,12.46,0,0,1,2.1.19V54.06ZM10.7,33.54V31.17h6.24v2.38ZM25.25,1.19V18.09H2.47l.2-16.91ZM10.1,27H5.81a3.4,3.4,0,0,1-3.4-3.43l0-4.29H25.25v4.33a3.4,3.4,0,0,1-3.4,3.4H17.53a.59.59,0,0,0-.59.59V30H10.7V27.6A.59.59,0,0,0,10.1,27ZM8.32,31.17H9.51v2.38H8.32ZM10.42,37V54.64a.56.56,0,0,0,.09.3H2.7a12.46,12.46,0,0,1,7.72-18Zm3.25,24.51A12.47,12.47,0,0,1,3.44,56.12H23.89A12.47,12.47,0,0,1,13.67,61.47ZM26.14,49a12.4,12.4,0,0,1-1.51,5.94H16.82a.56.56,0,0,0,.09-.3V37a12.39,12.39,0,0,1,1.7.58.58.58,0,0,0,.28.14A12.48,12.48,0,0,1,26.14,49Z"/></g></g></svg>