<svg xmlns="http://www.w3.org/2000/svg" viewBox="0 0 33.24 33.24"><defs><style>.cls-1{fill:#855e00;}.cls-2{fill:#fff;}</style></defs><title>youtube</title><g id="圖層_2" data-name="圖層 2"><g id="圖層_1-2" data-name="圖層 1"><path class="cls-1" d="M16.62,33.24A16.62,16.62,0,1,1,33.24,16.62,16.64,16.64,0,0,1,16.62,33.24Zm0-32A15.39,15.39,0,1,0,32,16.62,15.4,15.4,0,0,0,16.62,1.23Z"/><g id="_群組_" data-name="&lt;群組&gt;"><path id="_路徑_" data-name="&lt;路徑&gt;" class="cls-1" d="M26.32,11.56A2.62,2.62,0,0,0,24.47,9.7c-1.63-.44-8.16-.44-8.16-.44s-6.53,0-8.16.44a2.62,2.62,0,0,0-1.85,1.86,27.52,27.52,0,0,0-.44,5.06,27.52,27.52,0,0,0,.44,5.06,2.62,2.62,0,0,0,1.85,1.86c1.63.44,8.16.44,8.16.44s6.53,0,8.16-.44a2.62,2.62,0,0,0,1.85-1.86,27.52,27.52,0,0,0,.44-5.06A27.52,27.52,0,0,0,26.32,11.56Z"/><polygon id="_路徑_2" data-name="&lt;路徑&gt;" class="cls-2" points="14.18 19.72 19.63 16.62 14.18 13.51 14.18 19.72"/></g></g></g></svg>