<svg xmlns="http://www.w3.org/2000/svg" viewBox="0 0 32 32"><defs><style>.cls-1{fill:#fff;}.cls-2{fill:none;stroke:#fff;stroke-miterlimit:10;}</style></defs><title>youtube</title><g id="圖層_2" data-name="圖層 2"><g id="圖層_1-2" data-name="圖層 1"><path class="cls-1" d="M25.65,11.24a2.53,2.53,0,0,0-1.78-1.79C22.3,9,16,9,16,9s-6.3,0-7.87.42a2.53,2.53,0,0,0-1.78,1.79,26.56,26.56,0,0,0-.42,4.88A26.56,26.56,0,0,0,6.35,21,2.53,2.53,0,0,0,8.13,22.8c1.57.42,7.87.42,7.87.42s6.3,0,7.87-.42A2.53,2.53,0,0,0,25.65,21a26.56,26.56,0,0,0,.42-4.88A26.56,26.56,0,0,0,25.65,11.24ZM13.94,19.12v-6l5.27,3Z"/><circle class="cls-2" cx="16" cy="16" r="15.5"/></g></g></svg>